<svg width="262" height="98" viewBox="0 0 262 98" fill="none" xmlns="http://www.w3.org/2000/svg">
<path d="M127.392 104.187C127.046 104.247 126.699 104.306 126.352 104.364C126.002 104.482 125.652 104.6 125.301 104.718C125.999 104.543 126.696 104.367 127.392 104.187ZM130.182 103.454C129.647 103.508 129.11 103.56 128.571 103.61C128.025 103.797 127.478 103.983 126.93 104.169C127.469 104.078 128.006 103.984 128.542 103.888C129.09 103.745 129.636 103.6 130.182 103.454ZM131.806 103.281C131.466 103.319 131.127 103.357 130.785 103.393C130.443 103.486 130.099 103.577 129.755 103.668C130.441 103.542 131.125 103.413 131.806 103.281ZM132.627 102.789C132.031 102.809 131.429 102.819 130.829 102.83C130.206 103.047 129.582 103.263 128.957 103.477C129.563 103.421 130.167 103.36 130.768 103.297M134.666 102.709C134.119 102.735 133.572 102.76 133.021 102.78C132.476 102.931 131.931 103.081 131.384 103.23C131.924 103.171 132.463 103.11 133 103.047C133.556 102.936 134.112 102.824 134.666 102.709ZM136.367 102.619C136.011 102.639 135.653 102.657 135.296 102.676C134.933 102.752 134.569 102.827 134.204 102.902C134.928 102.812 135.649 102.717 136.367 102.619ZM134.927 102.143C134.29 102.119 133.654 102.098 133.012 102.066C132.385 102.287 131.758 102.507 131.129 102.726C131.757 102.714 132.387 102.706 133.008 102.682C133.649 102.504 134.289 102.324 134.927 102.143ZM137.04 102.203C136.446 102.19 135.848 102.172 135.25 102.152C134.635 102.327 134.02 102.501 133.403 102.673C134.034 102.647 134.659 102.61 135.287 102.578C135.872 102.455 136.457 102.33 137.04 102.203ZM139.037 102.233C138.508 102.229 137.977 102.224 137.442 102.214C136.934 102.326 136.425 102.436 135.915 102.545C136.443 102.519 136.971 102.495 137.494 102.461C138.01 102.387 138.525 102.311 139.037 102.233ZM140.553 102.227C140.265 102.228 139.976 102.229 139.688 102.23C139.369 102.28 139.05 102.331 138.729 102.379C139.34 102.333 139.946 102.279 140.553 102.227ZM241.665 51.2478C241.689 51.2182 241.711 51.189 241.735 51.1595L241.667 51.2067C241.64 51.2354 241.615 51.2637 241.588 51.2926L241.665 51.2478ZM137.192 101.488C136.533 101.419 135.877 101.358 135.215 101.284C134.561 101.518 133.907 101.751 133.25 101.982C133.918 102.013 134.578 102.03 135.242 102.053C135.894 101.867 136.544 101.678 137.192 101.488ZM139.29 101.7C138.682 101.648 138.063 101.58 137.446 101.515C136.82 101.699 136.192 101.881 135.563 102.062C136.19 102.083 136.817 102.104 137.439 102.115C138.058 101.979 138.675 101.841 139.29 101.7ZM141.443 101.849C140.836 101.807 140.231 101.77 139.621 101.723C139.029 101.859 138.436 101.995 137.841 102.127C138.461 102.135 139.074 102.13 139.691 102.132C140.276 102.04 140.861 101.946 141.443 101.849ZM143.31 101.979C142.833 101.953 142.347 101.914 141.863 101.878C141.356 101.964 140.847 102.048 140.337 102.129C140.824 102.129 141.312 102.13 141.795 102.123C142.301 102.076 142.808 102.031 143.31 101.979ZM144.849 102.04C144.539 102.027 144.232 102.019 143.923 102.007C143.637 102.038 143.356 102.075 143.07 102.104C143.666 102.089 144.256 102.061 144.849 102.04ZM242.287 50.6646L242.351 50.5737L242.293 50.6205L242.221 50.7099L242.287 50.6646ZM242.024 51.038L242.13 50.8874L242.016 50.9658L241.9 51.1098L242.024 51.038ZM139.394 100.834C138.745 100.729 138.086 100.607 137.429 100.487C136.764 100.728 136.098 100.968 135.43 101.207C136.104 101.282 136.772 101.347 137.442 101.415C138.094 101.223 138.745 101.03 139.394 100.834ZM141.559 101.166C140.915 101.072 140.267 100.973 139.617 100.869C138.978 101.061 138.338 101.252 137.696 101.441C138.34 101.506 138.984 101.571 139.62 101.623C140.268 101.474 140.914 101.321 141.559 101.166ZM143.684 101.461C143.064 101.381 142.439 101.296 141.812 101.205C141.193 101.355 140.572 101.502 139.95 101.646C140.592 101.695 141.229 101.737 141.867 101.779C142.475 101.676 143.08 101.57 143.684 101.461ZM145.686 101.709C145.131 101.647 144.569 101.574 144.007 101.501C143.431 101.606 142.853 101.708 142.273 101.807C142.829 101.845 143.384 101.881 143.932 101.908C144.519 101.845 145.104 101.779 145.686 101.709ZM147.689 101.913C147.16 101.862 146.634 101.817 146.1 101.76C145.601 101.821 145.098 101.875 144.595 101.931C145.149 101.952 145.701 101.972 146.252 101.989C146.733 101.966 147.211 101.94 147.689 101.913ZM149.078 102.043C148.82 102.021 148.559 101.995 148.299 101.97C148.009 101.988 147.724 102.013 147.432 102.03C147.985 102.041 148.529 102.039 149.078 102.043ZM242.898 50.0061C242.916 49.9758 242.934 49.946 242.952 49.9157C242.935 49.9321 242.918 49.9483 242.901 49.9647C242.879 49.9953 242.857 50.0262 242.836 50.057L242.898 50.0061ZM242.65 50.4115C242.683 50.3578 242.717 50.3036 242.75 50.2497C242.71 50.2828 242.671 50.3154 242.63 50.3486L242.522 50.5007L242.65 50.4115ZM242.398 50.8181L242.525 50.6139C242.471 50.6514 242.418 50.6884 242.364 50.726L242.228 50.9186L242.398 50.8181ZM243.463 49.2948L243.511 49.2027C243.493 49.2226 243.477 49.2421 243.458 49.2621L243.405 49.3504L243.463 49.2948ZM243.234 49.7311L243.323 49.562L243.218 49.6622C243.185 49.7159 243.154 49.7698 243.121 49.8235L243.234 49.7311ZM243.004 50.1647C243.043 50.0924 243.081 50.0199 243.12 49.9475L242.975 50.066C242.933 50.1344 242.894 50.2025 242.852 50.271L243.004 50.1647ZM242.774 50.597C242.818 50.5136 242.863 50.4306 242.907 50.3473L242.726 50.4732L242.578 50.712L242.774 50.597ZM141.621 100.156C140.961 100.006 140.294 99.8472 139.626 99.6855C138.957 99.9314 138.286 100.176 137.614 100.421C138.284 100.54 138.954 100.661 139.615 100.768C140.286 100.565 140.955 100.362 141.621 100.156ZM143.767 100.625C143.121 100.491 142.468 100.345 141.813 100.197C141.157 100.401 140.499 100.602 139.839 100.802C140.5 100.908 141.16 101.011 141.814 101.105C142.467 100.947 143.119 100.788 143.767 100.625ZM145.915 101.046C145.272 100.924 144.631 100.804 143.981 100.672C143.345 100.832 142.707 100.989 142.068 101.144C142.72 101.236 143.367 101.319 144.013 101.402C144.649 101.286 145.283 101.167 145.915 101.046ZM147.984 101.422C147.384 101.319 146.78 101.209 146.173 101.095C145.563 101.214 144.95 101.329 144.336 101.441C144.929 101.518 145.524 101.597 146.11 101.661C146.737 101.584 147.362 101.506 147.984 101.422ZM149.996 101.753C149.437 101.667 148.87 101.571 148.304 101.475C147.727 101.554 147.151 101.634 146.569 101.707C147.151 101.766 147.729 101.818 148.306 101.87C148.872 101.835 149.435 101.796 149.996 101.753ZM152.035 102.041C151.502 101.969 150.971 101.901 150.433 101.822C149.931 101.862 149.423 101.893 148.916 101.927C149.397 101.97 149.875 102.008 150.35 102.042C150.911 102.041 151.48 102.051 152.035 102.041ZM153.41 102.228C153.148 102.196 152.882 102.158 152.617 102.121C152.385 102.126 152.157 102.138 151.924 102.142C152.42 102.172 152.919 102.206 153.41 102.228ZM243.989 48.5239L244.032 48.4272L244.005 48.4626L243.953 48.5646L243.989 48.5239ZM243.776 48.9968L243.857 48.8169C243.829 48.8483 243.801 48.8797 243.773 48.9111L243.681 49.0876L243.776 48.9968ZM243.565 49.4595C243.6 49.3833 243.635 49.3069 243.67 49.2308L243.543 49.3521C243.504 49.4259 243.465 49.4997 243.426 49.5735L243.565 49.4595ZM243.355 49.9202C243.395 49.8324 243.435 49.7445 243.475 49.6565L243.312 49.7899C243.268 49.8742 243.223 49.9586 243.179 50.0429L243.355 49.9202ZM243.142 50.3803C243.187 50.2831 243.232 50.186 243.277 50.089L243.082 50.2253L242.934 50.5028L243.142 50.3803ZM143.825 99.4656C143.162 99.2762 142.494 99.0783 141.822 98.8742C141.147 99.1254 140.47 99.3754 139.792 99.6246C140.469 99.7867 141.144 99.9458 141.813 100.096C142.486 99.8878 143.156 99.6776 143.825 99.4656ZM145.984 100.056C145.322 99.8798 144.661 99.7042 143.992 99.5147C143.331 99.7244 142.669 99.9321 142.005 100.138C142.667 100.287 143.33 100.437 143.984 100.571C144.653 100.402 145.319 100.23 145.984 100.056ZM148.121 100.606C147.475 100.446 146.826 100.281 146.173 100.107C145.517 100.279 144.86 100.449 144.201 100.616C144.865 100.75 145.522 100.873 146.179 100.995C146.829 100.869 147.476 100.739 148.121 100.606ZM150.189 101.105C149.577 100.965 148.959 100.813 148.34 100.66C147.708 100.791 147.074 100.92 146.437 101.045C147.065 101.161 147.69 101.271 148.312 101.375C148.94 101.289 149.566 101.199 150.189 101.105ZM152.271 101.561C151.671 101.435 151.068 101.302 150.461 101.165C149.855 101.257 149.243 101.343 148.632 101.428C149.238 101.53 149.844 101.633 150.441 101.723C151.055 101.674 151.663 101.618 152.271 101.561ZM154.286 101.961C153.719 101.853 153.154 101.747 152.582 101.629C152.029 101.682 151.481 101.742 150.924 101.789C151.491 101.869 152.057 101.948 152.62 102.021C153.18 102.008 153.731 101.982 154.286 101.961ZM156.258 102.32C155.75 102.233 155.239 102.142 154.725 102.046C154.219 102.066 153.712 102.086 153.201 102.1C153.715 102.163 154.222 102.215 154.732 102.271C155.241 102.288 155.754 102.311 156.258 102.32ZM157.64 102.55C157.402 102.512 157.162 102.47 156.922 102.431C156.633 102.427 156.342 102.421 156.051 102.414C156.585 102.467 157.112 102.507 157.64 102.55ZM244.472 47.7022L244.502 47.6244L244.484 47.6514L244.446 47.7358L244.472 47.7022ZM244.283 48.195L244.352 48.0164L244.282 48.1068L244.202 48.2857L244.283 48.195ZM244.088 48.6992C244.12 48.6163 244.153 48.5333 244.185 48.4504L244.071 48.5777L243.962 48.819C244.004 48.7791 244.046 48.7389 244.088 48.6992ZM243.897 49.1884C243.933 49.096 243.969 49.0036 244.005 48.9112C243.956 48.9582 243.906 49.0053 243.857 49.0523L243.736 49.3203C243.79 49.2761 243.844 49.2322 243.897 49.1884ZM243.704 49.6767C243.745 49.5742 243.785 49.4718 243.826 49.3694C243.766 49.4183 243.706 49.4677 243.646 49.5169L243.511 49.8113C243.575 49.7662 243.64 49.7213 243.704 49.6767ZM243.51 50.1635C243.554 50.054 243.597 49.9447 243.641 49.8352L243.434 49.9795C243.386 50.0842 243.337 50.1891 243.289 50.2939L243.51 50.1635ZM146.035 98.7578C145.369 98.5289 144.698 98.2922 144.024 98.0501C143.343 98.3065 142.66 98.5624 141.976 98.817C142.652 99.0223 143.326 99.223 143.993 99.4126C144.675 99.1961 145.356 98.9781 146.035 98.7578ZM148.169 99.474C147.515 99.2622 146.853 99.037 146.189 98.8095C145.515 99.0287 144.839 99.2459 144.161 99.4613C144.838 99.6521 145.507 99.8284 146.176 100.006C146.842 99.8311 147.507 99.6541 148.169 99.474ZM150.304 100.141C149.654 99.9433 149 99.74 148.342 99.5281C147.685 99.7072 147.025 99.8832 146.364 100.057C147.029 100.232 147.688 100.398 148.345 100.559C149.001 100.424 149.654 100.284 150.304 100.141ZM152.405 100.758C151.77 100.577 151.134 100.394 150.492 100.2C149.851 100.341 149.209 100.478 148.564 100.613C149.202 100.77 149.838 100.922 150.469 101.065C151.117 100.966 151.763 100.865 152.405 100.758ZM154.495 101.334C153.874 101.169 153.249 100.998 152.62 100.82C151.996 100.925 151.371 101.028 150.741 101.125C151.359 101.264 151.976 101.402 152.587 101.529C153.225 101.467 153.863 101.404 154.495 101.334ZM156.559 101.864C155.967 101.719 155.369 101.564 154.769 101.406C154.155 101.476 153.533 101.534 152.913 101.595C153.522 101.718 154.126 101.833 154.728 101.945C155.34 101.92 155.954 101.899 156.559 101.864ZM158.527 102.331C157.984 102.209 157.435 102.076 156.886 101.942C156.316 101.976 155.743 102.004 155.168 102.03C155.757 102.137 156.339 102.233 156.921 102.329C157.46 102.336 157.993 102.333 158.527 102.331ZM160.444 102.74C159.961 102.64 159.478 102.539 158.991 102.433C158.508 102.436 158.021 102.435 157.533 102.431C158.057 102.515 158.577 102.592 159.096 102.666C159.549 102.696 159.995 102.716 160.444 102.74ZM161.884 103.025C161.613 102.974 161.345 102.927 161.073 102.872C160.814 102.86 160.555 102.847 160.295 102.833C160.828 102.902 161.357 102.965 161.884 103.025ZM244.918 46.821L244.942 46.7469L244.933 46.7617L244.901 46.8465L244.918 46.821ZM244.746 47.3505C244.766 47.2898 244.786 47.229 244.806 47.1685C244.785 47.1994 244.765 47.2302 244.745 47.2613C244.722 47.3204 244.7 47.3794 244.677 47.4386C244.7 47.4092 244.724 47.3797 244.746 47.3505ZM244.576 47.8679L244.656 47.6257C244.623 47.6679 244.59 47.7105 244.557 47.7527L244.465 47.9919L244.576 47.8679ZM244.402 48.3941L244.501 48.0976L244.367 48.2467L244.255 48.537C244.304 48.4894 244.353 48.4419 244.402 48.3941ZM244.228 48.9134L244.336 48.5928C244.28 48.6464 244.226 48.6993 244.171 48.7529L244.05 49.061C244.11 49.0121 244.169 48.9629 244.228 48.9134ZM244.055 49.4297C244.094 49.3148 244.132 49.1999 244.171 49.085C244.107 49.1381 244.044 49.1909 243.979 49.2441C243.936 49.3546 243.892 49.465 243.848 49.5755L244.055 49.4297ZM243.878 49.9461C243.92 49.8245 243.962 49.703 244.003 49.5815L243.785 49.7345C243.739 49.8507 243.693 49.967 243.647 50.0832L243.878 49.9461ZM148.233 98.0352C147.567 97.7703 146.895 97.497 146.221 97.2174C145.537 97.4779 144.852 97.7377 144.165 97.9966C144.844 98.2398 145.52 98.4772 146.191 98.7066C146.874 98.4847 147.554 98.2607 148.233 98.0352ZM150.362 98.8653C149.704 98.6155 149.04 98.3556 148.373 98.0909C147.699 98.3151 147.023 98.5379 146.345 98.7585C147.016 98.9873 147.685 99.2127 148.347 99.4261C149.021 99.2421 149.692 99.0545 150.362 98.8653ZM152.48 99.6519C151.831 99.4185 151.174 99.1719 150.516 98.9224C149.852 99.1105 149.186 99.2971 148.518 99.4799C149.182 99.6931 149.843 99.9006 150.498 100.099C151.161 99.9532 151.822 99.8047 152.48 99.6519ZM154.574 100.381C153.936 100.164 153.295 99.9424 152.649 99.7116C151.997 99.8637 151.343 100.012 150.685 100.158C151.338 100.354 151.983 100.537 152.627 100.72C153.279 100.61 153.928 100.498 154.574 100.381ZM156.665 101.069C156.035 100.867 155.403 100.663 154.764 100.447C154.127 100.563 153.485 100.673 152.842 100.782C153.491 100.964 154.135 101.137 154.775 101.305C155.41 101.233 156.037 101.15 156.665 101.069ZM158.731 101.709C158.119 101.525 157.504 101.337 156.884 101.14C156.273 101.219 155.666 101.306 155.049 101.377C155.666 101.538 156.279 101.693 156.889 101.841C157.508 101.803 158.119 101.756 158.731 101.709ZM160.783 102.303C160.194 102.139 159.6 101.968 159.004 101.79C158.41 101.837 157.815 101.88 157.215 101.918C157.811 102.061 158.406 102.202 158.994 102.332C159.594 102.327 160.19 102.318 160.783 102.303ZM162.77 102.839C162.223 102.698 161.67 102.547 161.116 102.394C160.57 102.409 160.025 102.427 159.473 102.433C160.009 102.55 160.546 102.666 161.075 102.772C161.643 102.798 162.209 102.822 162.77 102.839ZM164.62 103.297C164.156 103.187 163.686 103.068 163.216 102.949C162.747 102.938 162.28 102.928 161.807 102.91C162.291 103.002 162.774 103.093 163.254 103.177C163.713 103.223 164.166 103.259 164.62 103.297ZM166.171 103.647C165.881 103.584 165.592 103.52 165.301 103.454C165.046 103.435 164.79 103.413 164.535 103.391C165.083 103.48 165.631 103.57 166.171 103.647ZM245.322 45.8864L245.34 45.823L245.339 45.8231L245.316 45.8976L245.322 45.8864ZM245.175 46.4317L245.22 46.2636C245.204 46.2925 245.188 46.3208 245.171 46.3497L245.117 46.5195L245.175 46.4317ZM245.02 46.9959C245.044 46.9084 245.069 46.8207 245.093 46.7334L245.005 46.8661C244.977 46.9519 244.95 47.0378 244.922 47.1237C244.955 47.0809 244.987 47.0385 245.02 46.9959ZM244.869 47.5412L244.95 47.2467C244.912 47.2969 244.872 47.3478 244.832 47.3986C244.801 47.4949 244.769 47.5915 244.737 47.6879C244.781 47.6389 244.826 47.5899 244.869 47.5412ZM244.715 48.0907L244.81 47.7519C244.761 47.8069 244.711 47.8624 244.662 47.9177C244.626 48.0277 244.59 48.1377 244.554 48.2476L244.715 48.0907ZM244.56 48.6384C244.594 48.5176 244.629 48.3963 244.663 48.2757L244.487 48.4458C244.448 48.5625 244.409 48.6792 244.37 48.7958L244.56 48.6384ZM244.405 49.1829C244.442 49.0554 244.478 48.928 244.514 48.8005L244.313 48.9674C244.271 49.09 244.231 49.2124 244.189 49.335L244.405 49.1829ZM244.247 49.7277C244.285 49.5942 244.324 49.4609 244.363 49.3274L244.138 49.4862C244.095 49.6142 244.05 49.7419 244.007 49.8699L244.247 49.7277ZM150.423 97.2994C149.759 96.999 149.089 96.6905 148.416 96.3748C147.73 96.6399 147.042 96.904 146.353 97.1673C147.031 97.4477 147.706 97.7218 148.376 97.9874C149.06 97.7598 149.743 97.5306 150.423 97.2994ZM152.54 98.2384C151.882 97.9536 151.219 97.6582 150.553 97.3574C149.876 97.5879 149.198 97.8163 148.517 98.0431C149.189 98.3088 149.858 98.5695 150.521 98.8203C151.196 98.6288 151.869 98.435 152.54 98.2384ZM154.649 99.1323C153.998 98.8631 153.341 98.5837 152.681 98.2984C152.015 98.4942 151.346 98.6868 150.675 98.8774C151.339 99.128 152.001 99.3756 152.656 99.6102C153.323 99.4546 153.987 99.2948 154.649 99.1323ZM156.739 99.9728C156.096 99.7195 155.451 99.4642 154.799 99.1956C154.144 99.3568 153.487 99.515 152.826 99.6697C153.479 99.9024 154.127 100.129 154.771 100.346C155.43 100.226 156.087 100.102 156.739 99.9728ZM158.836 100.776C158.196 100.536 157.554 100.293 156.905 100.039C156.259 100.167 155.613 100.293 154.961 100.412C155.609 100.63 156.25 100.836 156.888 101.039C157.54 100.954 158.192 100.87 158.836 100.776ZM160.903 101.525C160.283 101.307 159.661 101.083 159.032 100.849C158.396 100.943 157.75 101.024 157.107 101.11C157.745 101.311 158.377 101.502 159.006 101.689C159.642 101.639 160.275 101.586 160.903 101.525ZM162.98 102.235C162.365 102.032 161.747 101.821 161.124 101.603C160.512 101.663 159.897 101.72 159.278 101.771C159.895 101.952 160.508 102.125 161.116 102.293C161.739 102.276 162.365 102.264 162.98 102.235ZM165.002 102.885C164.421 102.705 163.835 102.517 163.247 102.323C162.653 102.352 162.049 102.365 161.449 102.384C162.042 102.545 162.632 102.701 163.216 102.848C163.813 102.863 164.412 102.881 165.002 102.885ZM166.933 103.464C166.402 103.311 165.865 103.148 165.327 102.983C164.777 102.982 164.219 102.97 163.662 102.959C164.212 103.096 164.76 103.229 165.303 103.354C165.85 103.396 166.393 103.432 166.933 103.464ZM168.802 103.982C168.334 103.857 167.859 103.723 167.385 103.589C166.932 103.565 166.483 103.546 166.026 103.515C166.456 103.611 166.886 103.708 167.31 103.796C167.81 103.861 168.309 103.926 168.802 103.982ZM170.232 104.346C169.97 104.28 169.708 104.215 169.445 104.148C169.213 104.124 168.984 104.104 168.751 104.077C169.247 104.17 169.741 104.261 170.232 104.346ZM245.561 45.4653C245.574 45.4102 245.586 45.355 245.598 45.2999L245.56 45.3755C245.545 45.4325 245.53 45.4894 245.515 45.5465L245.561 45.4653ZM245.429 46.0457L245.487 45.7937L245.413 45.9238L245.345 46.1731L245.429 46.0457ZM245.297 46.6289C245.321 46.5247 245.344 46.4207 245.368 46.3165L245.263 46.4746C245.235 46.5778 245.208 46.6813 245.179 46.7847C245.218 46.7328 245.257 46.6811 245.297 46.6289ZM245.161 47.2147C245.188 47.0972 245.216 46.9794 245.243 46.8618C245.197 46.9218 245.154 46.9808 245.108 47.041C245.077 47.1534 245.046 47.2658 245.015 47.3783C245.064 47.3236 245.113 47.2688 245.161 47.2147ZM245.027 47.7883C245.056 47.6627 245.085 47.5372 245.115 47.4118C245.063 47.4706 245.009 47.5297 244.956 47.589C244.922 47.7113 244.888 47.8337 244.854 47.956L245.027 47.7883ZM244.891 48.3633C244.923 48.2296 244.955 48.0956 244.986 47.9617L244.802 48.1406C244.765 48.2701 244.728 48.3994 244.692 48.5289L244.891 48.3633ZM244.754 48.9374L244.854 48.5182L244.646 48.6908C244.608 48.8254 244.57 48.9597 244.531 49.0942L244.754 48.9374ZM244.616 49.5088C244.651 49.3646 244.685 49.2201 244.72 49.0757L244.49 49.2379C244.45 49.3771 244.409 49.5162 244.369 49.6554L244.616 49.5088ZM152.602 96.5492C151.942 96.2167 151.277 95.8735 150.607 95.5238C149.92 95.7923 149.231 96.0598 148.541 96.3266C149.217 96.643 149.89 96.9525 150.557 97.2534C151.241 97.0204 151.922 96.7855 152.602 96.5492ZM154.712 97.5894C154.053 97.2702 153.392 96.9451 152.724 96.6093C152.047 96.8451 151.368 97.0792 150.687 97.3115C151.358 97.6134 152.025 97.9093 152.687 98.1956C153.364 97.9964 154.039 97.794 154.712 97.5894ZM156.817 98.5874C156.161 98.2822 155.504 97.9735 154.839 97.6521C154.171 97.8554 153.501 98.0572 152.828 98.2556C153.492 98.5418 154.152 98.8243 154.806 99.0938C155.479 98.9281 156.149 98.7599 156.817 98.5874ZM158.893 99.5324C158.25 99.2459 157.605 98.9541 156.954 98.6519C156.292 98.8234 155.628 98.9909 154.96 99.1558C155.616 99.4246 156.265 99.6841 156.911 99.9375C157.574 99.8062 158.236 99.6721 158.893 99.5324ZM160.965 100.436C160.33 100.165 159.69 99.8876 159.046 99.6009C158.393 99.7403 157.735 99.8725 157.076 100.004C157.736 100.261 158.388 100.507 159.038 100.748C159.686 100.652 160.324 100.541 160.965 100.436ZM163.033 101.295C162.405 101.041 161.772 100.778 161.135 100.508C160.502 100.613 159.874 100.726 159.234 100.822C159.869 101.057 160.499 101.281 161.126 101.501C161.766 101.438 162.401 101.369 163.033 101.295ZM165.085 102.106C164.472 101.871 163.854 101.626 163.232 101.375C162.608 101.449 161.978 101.515 161.347 101.579C161.985 101.801 162.618 102.015 163.248 102.221C163.865 102.191 164.474 102.147 165.085 102.106ZM167.123 102.867C166.526 102.651 165.922 102.424 165.316 102.193C164.716 102.235 164.115 102.275 163.508 102.307C164.119 102.506 164.726 102.697 165.328 102.882C165.93 102.883 166.528 102.877 167.123 102.867ZM169.117 103.567C168.552 103.375 167.979 103.172 167.404 102.965C166.825 102.977 166.24 102.979 165.653 102.98C166.235 103.156 166.814 103.327 167.387 103.489C167.967 103.52 168.545 103.548 169.117 103.567ZM171.086 104.209C170.545 104.038 169.999 103.859 169.451 103.676C168.916 103.66 168.379 103.64 167.838 103.614C168.377 103.764 168.914 103.91 169.446 104.048C169.995 104.106 170.544 104.163 171.086 104.209ZM172.912 104.763C172.444 104.625 171.975 104.486 171.502 104.34C171.045 104.304 170.585 104.263 170.123 104.218C170.6 104.338 171.076 104.457 171.547 104.566C172.005 104.638 172.458 104.7 172.912 104.763ZM174.318 105.162C174.059 105.09 173.803 105.024 173.542 104.95C173.293 104.918 173.041 104.88 172.791 104.845C173.303 104.956 173.812 105.061 174.318 105.162ZM-19.7343 62.6807C-19.6114 62.0167 -19.4886 61.351 -19.3654 60.6838C-19.1309 59.412 -18.8951 58.1349 -18.6564 56.8565C-19.5602 60.2857 -20.3963 63.7526 -21.2137 67.1752C-20.7353 65.6732 -20.2435 64.1724 -19.7343 62.6807ZM-21.2015 70.3667C-20.7415 68.0693 -20.2984 65.7203 -19.8573 63.3441C-20.4337 65.0515 -20.9879 66.7694 -21.5265 68.4859C-22.0594 70.7202 -22.587 72.9308 -23.1231 75.0946C-22.5026 73.5173 -21.8641 71.9376 -21.2015 70.3667ZM245.905 44.4483L245.936 44.2761L245.91 44.3377L245.87 44.5226L245.905 44.4483ZM245.796 45.05L245.842 44.7997L245.78 44.9277L245.724 45.1773L245.796 45.05ZM245.683 45.6604L245.742 45.3425L245.653 45.5006C245.629 45.6055 245.605 45.7104 245.581 45.8155C245.615 45.7638 245.65 45.7119 245.683 45.6604ZM245.571 46.2644C245.594 46.1453 245.615 46.0263 245.638 45.9072C245.599 45.9668 245.559 46.0265 245.52 46.0864C245.493 46.2044 245.466 46.3222 245.439 46.4401L245.571 46.2644ZM245.455 46.8768C245.48 46.7448 245.505 46.6128 245.531 46.4806C245.482 46.5447 245.434 46.6084 245.386 46.6722C245.356 46.8008 245.327 46.9297 245.297 47.0583C245.349 46.998 245.401 46.9378 245.455 46.8768ZM245.338 47.486C245.366 47.3463 245.392 47.2061 245.419 47.0663C245.361 47.1315 245.307 47.1953 245.25 47.2605L245.156 47.6634C245.217 47.6041 245.278 47.5449 245.338 47.486ZM245.221 48.0895C245.25 47.9431 245.279 47.797 245.307 47.6507C245.244 47.7125 245.179 47.7746 245.115 47.8368C245.082 47.9777 245.049 48.1189 245.016 48.26C245.084 48.2029 245.153 48.1459 245.221 48.0895ZM245.103 48.6912C245.133 48.5399 245.162 48.3888 245.192 48.2374C245.121 48.2961 245.05 48.3555 244.979 48.4146C244.944 48.5607 244.908 48.7067 244.873 48.8527C244.95 48.7985 245.027 48.7447 245.103 48.6912ZM244.983 49.2908C245.015 49.1354 245.045 48.98 245.076 48.8246C244.998 48.8797 244.919 48.9353 244.84 48.9911C244.804 49.1404 244.769 49.29 244.733 49.4395L244.983 49.2908ZM154.789 95.7803C154.13 95.416 153.465 95.0438 152.797 94.6631C152.108 94.9352 151.419 95.2068 150.727 95.4772C151.399 95.8275 152.067 96.1711 152.729 96.5048C153.418 96.2648 154.105 96.0236 154.789 95.7803ZM156.882 96.9186C156.227 96.5686 155.566 96.2093 154.902 95.843C154.221 96.0855 153.537 96.3259 152.852 96.5649C153.521 96.9014 154.185 97.2291 154.845 97.5487C155.526 97.3412 156.205 97.1312 156.882 96.9186ZM158.966 98.0154C158.316 97.6801 157.661 97.3347 157.002 96.9829C156.328 97.1952 155.651 97.4044 154.972 97.6113C155.641 97.9342 156.302 98.2432 156.961 98.5495C157.633 98.3751 158.3 98.1965 158.966 98.0154ZM161.028 99.0614C160.389 98.744 159.743 98.4151 159.094 98.081C158.431 98.2617 157.766 98.4399 157.098 98.6138C157.755 98.9183 158.406 99.2112 159.054 99.4994C159.715 99.3578 160.372 99.2112 161.028 99.0614ZM163.104 100.075C162.464 99.7696 161.816 99.4519 161.166 99.1294C160.515 99.2785 159.864 99.4268 159.207 99.5679C159.856 99.856 160.5 100.134 161.141 100.406C161.796 100.297 162.456 100.193 163.104 100.075ZM165.144 101.028C164.522 100.744 163.894 100.449 163.263 100.149C162.619 100.267 161.962 100.369 161.311 100.478C161.957 100.752 162.599 101.017 163.236 101.274C163.876 101.198 164.511 101.114 165.144 101.028ZM167.199 101.941C166.575 101.67 165.948 101.392 165.315 101.105C164.691 101.191 164.067 101.278 163.436 101.353C164.068 101.607 164.696 101.853 165.318 102.091C165.949 102.047 166.576 101.997 167.199 101.941ZM169.235 102.801C168.623 102.549 168.009 102.293 167.388 102.025C166.779 102.081 166.167 102.133 165.55 102.178C166.173 102.415 166.793 102.644 167.407 102.864C168.022 102.851 168.628 102.827 169.235 102.801ZM171.267 103.615C170.668 103.382 170.065 103.144 169.456 102.894C168.868 102.92 168.283 102.949 167.688 102.963C168.28 103.174 168.87 103.38 169.454 103.576C170.061 103.594 170.668 103.61 171.267 103.615ZM173.257 104.366C172.682 104.156 172.104 103.94 171.52 103.715C170.947 103.712 170.368 103.7 169.788 103.685C170.364 103.876 170.937 104.063 171.504 104.24C172.092 104.287 172.678 104.332 173.257 104.366ZM175.173 105.044C174.641 104.862 174.107 104.676 173.568 104.481C173.032 104.452 172.491 104.414 171.949 104.373C172.485 104.538 173.02 104.7 173.549 104.852C174.094 104.923 174.635 104.985 175.173 105.044ZM176.996 105.648C176.534 105.5 176.07 105.349 175.602 105.191C175.147 105.144 174.692 105.095 174.232 105.039C174.688 105.165 175.146 105.294 175.596 105.411C176.067 105.497 176.532 105.572 176.996 105.648ZM178.32 106.064C178.101 105.998 177.88 105.928 177.66 105.858C177.4 105.817 177.135 105.769 176.874 105.726C177.358 105.842 177.841 105.957 178.32 106.064ZM-16.7919 49.8955C-16.5244 47.9631 -16.2527 46.0291 -15.9699 44.1041C-16.7404 47.4792 -17.4335 50.9327 -18.0931 54.3926C-17.6763 52.88 -17.2443 51.3785 -16.7919 49.8955ZM-17.8258 57.3878C-17.6124 55.8624 -17.4015 54.3273 -17.1899 52.7872C-17.0858 52.0299 -16.9818 51.2715 -16.8771 50.513C-17.3814 52.1903 -17.861 53.8901 -18.3222 55.602C-18.6432 57.3051 -18.9574 59.0078 -19.2699 60.7015L-19.5201 62.0572C-18.9777 60.4863 -18.4148 58.9267 -17.8258 57.3878ZM-19.0189 65.4407C-18.6211 62.9488 -18.2492 60.3992 -17.8861 57.8187C-18.4963 59.4287 -19.0788 61.0605 -19.6397 62.7036C-20.0919 65.146 -20.5449 67.5619 -21.0145 69.9255C-20.374 68.4186 -19.7106 66.9203 -19.0189 65.4407ZM-20.6206 74.2512C-20.0505 71.5417 -19.5444 68.7068 -19.0748 65.7902C-19.7798 67.3098 -20.4557 68.8482 -21.1081 70.3949C-21.6676 73.1874 -22.2518 75.9038 -22.8875 78.5013C-22.1574 77.077 -21.4035 75.6572 -20.6206 74.2512ZM246.214 43.3565L246.237 43.1938L246.219 43.2445L246.189 43.4175L246.214 43.3565ZM246.124 43.9964C246.136 43.9107 246.148 43.8251 246.16 43.7396L246.11 43.8609L246.062 44.1232L246.124 43.9964ZM246.031 44.6369C246.046 44.5293 246.062 44.4218 246.078 44.3143L245.999 44.4779C245.98 44.583 245.961 44.6883 245.942 44.7936C245.972 44.7413 246.002 44.6889 246.031 44.6369ZM245.938 45.2746C245.956 45.1503 245.974 45.026 245.992 44.9017C245.958 44.9622 245.923 45.0229 245.889 45.0837C245.866 45.2065 245.843 45.3293 245.821 45.4521C245.86 45.3927 245.9 45.3334 245.938 45.2746ZM245.844 45.9027C245.864 45.7694 245.885 45.636 245.904 45.5025C245.862 45.5676 245.818 45.6334 245.775 45.699C245.751 45.8297 245.727 45.9603 245.702 46.0909L245.844 45.9027ZM245.748 46.54L245.814 46.1052L245.662 46.3058C245.636 46.4477 245.608 46.5895 245.582 46.7315C245.637 46.6677 245.692 46.604 245.748 46.54ZM245.651 47.1789L245.721 46.7188C245.662 46.7864 245.604 46.8537 245.545 46.9209C245.517 47.0694 245.489 47.2181 245.46 47.3666C245.524 47.3041 245.586 47.2416 245.651 47.1789ZM245.551 47.8119C245.576 47.6542 245.601 47.4965 245.625 47.3387C245.559 47.4038 245.495 47.468 245.428 47.533C245.399 47.6855 245.369 47.8379 245.34 47.9904C245.41 47.9309 245.48 47.8716 245.551 47.8119ZM245.453 48.4422C245.479 48.28 245.503 48.1177 245.529 47.9554C245.456 48.0168 245.384 48.0777 245.31 48.1393C245.279 48.2962 245.248 48.4531 245.217 48.6101C245.297 48.5539 245.374 48.4986 245.453 48.4422ZM245.351 49.0723C245.378 48.9059 245.405 48.7393 245.432 48.5726L245.191 48.7435C245.159 48.9036 245.128 49.064 245.096 49.224L245.351 49.0723ZM156.962 94.9985C156.309 94.6046 155.651 94.2017 154.989 93.7914C154.297 94.068 153.604 94.3438 152.909 94.6185C153.58 95.0005 154.246 95.3724 154.908 95.7377C155.595 95.493 156.279 95.2465 156.962 94.9985ZM159.033 96.2305C158.384 95.8511 157.729 95.4599 157.07 95.0626C156.389 95.3104 155.706 95.5564 155.021 95.8006C155.688 96.1683 156.351 96.528 157.009 96.879C157.686 96.6655 158.361 96.4491 159.033 96.2305ZM161.106 97.42C160.457 97.0528 159.805 96.6799 159.146 96.2956C158.476 96.5136 157.804 96.7302 157.129 96.9432C157.791 97.2962 158.45 97.642 159.102 97.9782C159.773 97.7953 160.441 97.6096 161.106 97.42ZM163.16 98.56C162.519 98.2096 161.875 97.855 161.224 97.4876C160.563 97.6768 159.897 97.8616 159.23 98.044C159.882 98.3794 160.531 98.7085 161.174 99.0272C161.838 98.8745 162.502 98.7208 163.16 98.56ZM165.209 99.6582C164.573 99.3233 163.933 98.9826 163.288 98.6305C162.634 98.7909 161.973 98.9429 161.312 99.0951C161.969 99.42 162.622 99.7393 163.269 100.047C163.923 99.9264 164.562 99.7881 165.209 99.6582ZM167.266 100.72C166.631 100.399 165.992 100.071 165.348 99.7319C164.708 99.8612 164.075 100.001 163.427 100.121C164.062 100.422 164.694 100.718 165.318 101.002C165.97 100.912 166.622 100.821 167.266 100.72ZM169.319 101.738C168.692 101.434 168.06 101.121 167.423 100.8C166.785 100.901 166.137 100.989 165.491 101.079C166.129 101.368 166.763 101.651 167.39 101.922C168.035 101.863 168.683 101.809 169.319 101.738ZM171.329 102.691C170.721 102.409 170.107 102.118 169.488 101.819C168.86 101.891 168.221 101.946 167.584 102.006C168.214 102.277 168.839 102.538 169.459 102.793C170.087 102.765 170.71 102.731 171.329 102.691ZM173.357 103.606C172.751 103.34 172.139 103.063 171.522 102.779C170.912 102.82 170.298 102.857 169.68 102.886C170.3 103.138 170.912 103.378 171.522 103.614C172.137 103.617 172.751 103.617 173.357 103.606ZM175.351 104.461C174.766 104.217 174.174 103.963 173.579 103.703C172.983 103.715 172.379 103.715 171.774 103.714C172.378 103.945 172.975 104.165 173.569 104.38C174.166 104.413 174.762 104.443 175.351 104.461ZM177.289 105.246C176.734 105.028 176.173 104.799 175.609 104.566C175.037 104.55 174.459 104.524 173.879 104.495C174.46 104.703 175.034 104.9 175.606 105.092C176.172 105.151 176.732 105.201 177.289 105.246ZM179.199 105.974C178.678 105.782 178.15 105.579 177.62 105.373C177.094 105.332 176.567 105.292 176.033 105.239C176.581 105.421 177.122 105.591 177.661 105.759C178.179 105.838 178.689 105.906 179.199 105.974ZM180.988 106.61C180.549 106.458 180.103 106.298 179.657 106.137C179.183 106.077 178.702 106.006 178.222 105.936C178.723 106.088 179.217 106.228 179.711 106.368C180.141 106.455 180.564 106.531 180.988 106.61ZM182.443 107.091C182.185 107.007 181.927 106.922 181.668 106.837C181.405 106.791 181.137 106.736 180.873 106.686C181.4 106.828 181.925 106.964 182.443 107.091ZM-14.3626 37.2978C-14.1651 35.3534 -13.9597 33.4184 -13.7396 31.5026C-14.4082 34.8398 -14.9896 38.2897 -15.5243 41.7854C-15.1564 40.2677 -14.7708 38.7695 -14.3626 37.2978ZM-15.0838 44.6898L-15.083 44.6812C-14.8661 42.4124 -14.6489 40.1388 -14.4213 37.8767C-14.8719 39.5319 -15.2955 41.219 -15.6977 42.9288C-16.0154 45.0494 -16.318 47.1839 -16.6143 49.318C-16.1288 47.7507 -15.6203 46.2052 -15.0838 44.6898ZM-15.8544 52.5633C-15.6013 50.0927 -15.3615 47.5946 -15.122 45.0897C-15.6751 46.6701 -16.1983 48.2829 -16.6973 49.9181C-16.8304 50.8797 -16.9624 51.8411 -17.0941 52.8005C-17.2863 54.2012 -17.4782 55.598 -17.6719 56.987C-17.0931 55.4891 -16.4887 54.0118 -15.8544 52.5633ZM-16.8048 60.9727C-16.4691 58.3293 -16.1695 55.6215 -15.8867 52.8784C-16.5311 54.3626 -17.1443 55.8771 -17.7316 57.4123C-18.097 60.022 -18.4709 62.6019 -18.8703 65.124C-18.2091 63.7202 -17.5223 62.3335 -16.8048 60.9727ZM-18.1853 70.0948C-17.6697 67.2637 -17.2311 64.2997 -16.8403 61.249C-17.5647 62.633 -18.2584 64.0429 -18.9256 65.4701C-19.3932 68.398 -19.897 71.2456 -20.4631 73.97C-19.7308 72.6632 -18.9729 71.3689 -18.1853 70.0948ZM246.483 42.2051L246.498 42.0538L246.488 42.0878L246.466 42.2539L246.483 42.2051ZM246.412 42.8743L246.439 42.6214L246.4 42.7334C246.387 42.8209 246.375 42.9084 246.363 42.9959L246.412 42.8743ZM246.339 43.5474L246.375 43.2224L246.308 43.3825L246.262 43.7082L246.339 43.5474ZM246.267 44.2106C246.281 44.0863 246.294 43.962 246.308 43.8375L246.218 44.025C246.2 44.1498 246.181 44.2744 246.163 44.3991C246.198 44.3362 246.232 44.2736 246.267 44.2106ZM246.192 44.877C246.208 44.7389 246.224 44.6007 246.239 44.4624C246.201 44.5315 246.163 44.6003 246.124 44.6694L246.065 45.0768C246.107 45.0104 246.149 44.9438 246.192 44.877ZM246.117 45.5412C246.134 45.3934 246.15 45.2454 246.167 45.0974C246.121 45.169 246.077 45.2399 246.03 45.3117L245.967 45.7404C246.017 45.6739 246.067 45.6073 246.117 45.5412ZM246.04 46.2043C246.058 46.0469 246.077 45.8892 246.095 45.7317C246.042 45.8021 245.989 45.8724 245.936 45.9429C245.913 46.0965 245.89 46.2503 245.866 46.4038L246.04 46.2043ZM245.961 46.8727L246.02 46.3755L245.84 46.5828C245.815 46.7434 245.791 46.904 245.766 47.0645L245.961 46.8727ZM245.882 47.5336C245.903 47.3644 245.923 47.195 245.943 47.0255L245.741 47.2243C245.716 47.3887 245.69 47.5528 245.664 47.717L245.882 47.5336ZM245.8 48.1944C245.822 48.0206 245.844 47.8467 245.865 47.6728L245.642 47.8604C245.615 48.0281 245.59 48.196 245.563 48.3637L245.8 48.1944ZM245.719 48.8523C245.742 48.6752 245.763 48.4979 245.785 48.3207L245.543 48.4936C245.515 48.665 245.487 48.8362 245.459 49.0076L245.719 48.8523ZM159.136 94.2006C158.487 93.7799 157.832 93.3498 157.174 92.9124C156.483 93.1915 155.792 93.4703 155.098 93.7478C155.762 94.1588 156.422 94.5623 157.076 94.957C157.765 94.7064 158.452 94.4545 159.136 94.2006ZM161.192 95.5171C160.546 95.1093 159.893 94.6913 159.237 94.2664C158.555 94.5197 157.871 94.7713 157.184 95.0212C157.845 95.4191 158.503 95.8107 159.153 96.1909C159.835 95.9688 160.515 95.7443 161.192 95.5171ZM163.242 96.7949C162.6 96.4009 161.95 95.9954 161.298 95.5841C160.624 95.8107 159.946 96.0344 159.267 96.2561C159.927 96.641 160.582 97.0167 161.232 97.3841C161.906 97.1914 162.575 96.9942 163.242 96.7949ZM165.273 98.0244C164.639 97.6472 163.998 97.2574 163.354 96.8629C162.688 97.0621 162.02 97.2587 161.349 97.4513C162.004 97.8206 162.651 98.1761 163.296 98.5281C163.959 98.3653 164.617 98.1952 165.273 98.0244ZM167.326 99.2281C166.688 98.861 166.041 98.4797 165.392 98.094C164.738 98.2649 164.084 98.4361 163.424 98.5986C164.073 98.9518 164.715 99.2932 165.353 99.629C166.011 99.496 166.676 99.371 167.326 99.2281ZM169.341 100.366C168.717 100.02 168.088 99.6637 167.454 99.3002C166.807 99.443 166.147 99.5695 165.492 99.7025C166.143 100.043 166.787 100.374 167.427 100.697C168.071 100.595 168.704 100.479 169.341 100.366ZM171.377 101.473C170.749 101.138 170.117 100.797 169.479 100.443C168.848 100.556 168.222 100.674 167.584 100.777C168.225 101.099 168.859 101.412 169.49 101.716C170.125 101.644 170.75 101.558 171.377 101.473ZM173.406 102.534C172.785 102.216 172.161 101.892 171.53 101.556C170.909 101.641 170.287 101.724 169.658 101.797C170.285 102.099 170.907 102.392 171.524 102.677C172.155 102.634 172.784 102.59 173.406 102.534ZM175.414 103.539C174.804 103.241 174.191 102.935 173.571 102.619C172.958 102.675 172.338 102.722 171.717 102.765C172.344 103.053 172.965 103.332 173.582 103.602C174.198 103.589 174.807 103.566 175.414 103.539ZM177.413 104.494C176.815 104.216 176.213 103.93 175.605 103.633C175.007 103.661 174.404 103.681 173.797 103.695C174.407 103.96 175.011 104.218 175.61 104.466C176.216 104.482 176.817 104.492 177.413 104.494ZM179.375 105.385C178.799 105.13 178.218 104.868 177.632 104.597C177.049 104.597 176.459 104.585 175.866 104.57C176.457 104.813 177.044 105.048 177.625 105.274C178.213 105.319 178.796 105.355 179.375 105.385ZM181.328 106.224C180.767 105.99 180.2 105.748 179.629 105.497C179.074 105.471 178.518 105.44 177.955 105.4C178.529 105.621 179.098 105.834 179.662 106.039C180.223 106.109 180.777 106.168 181.328 106.224ZM183.221 106.989C182.702 106.785 182.178 106.576 181.649 106.357C181.127 106.307 180.598 106.246 180.067 106.183C180.606 106.375 181.143 106.562 181.673 106.74C182.195 106.831 182.708 106.911 183.221 106.989ZM184.994 107.661C184.549 107.498 184.1 107.329 183.647 107.155C183.19 107.088 182.728 107.011 182.264 106.934C182.722 107.083 183.178 107.229 183.63 107.368C184.088 107.471 184.543 107.569 184.994 107.661ZM186.312 108.136C186.079 108.056 185.843 107.969 185.607 107.884C185.341 107.831 185.072 107.776 184.803 107.72C185.311 107.867 185.812 108.003 186.312 108.136ZM-12.3318 24.8382C-12.193 22.8827 -12.043 20.9453 -11.875 19.0359C-12.4622 22.3376 -12.9512 25.7825 -13.3822 29.3071C-13.0543 27.788 -12.7053 26.2967 -12.3318 24.8382ZM-12.8058 32.1715C-12.6692 29.8947 -12.5267 27.6269 -12.3702 25.3817C-12.7792 27.0135 -13.158 28.6864 -13.5126 30.3907C-13.7611 32.489 -13.9905 34.6129 -14.2092 36.749C-13.769 35.1895 -13.3027 33.6612 -12.8058 32.1715ZM-13.2639 39.952C-13.193 38.7614 -13.1231 37.5689 -13.0535 36.3765C-12.979 35.0983 -12.9044 33.8204 -12.8281 32.5449C-13.3389 34.0968 -13.8164 35.6909 -14.2672 37.3167C-14.5031 39.6422 -14.7276 41.9807 -14.9509 44.3157C-14.4178 42.8282 -13.8572 41.3709 -13.2639 39.952ZM-13.795 48.1925C-13.6073 45.5703 -13.4409 42.9146 -13.2815 40.2481C-13.8824 41.6993 -14.4496 43.1899 -14.9886 44.7114C-15.2307 47.2452 -15.4724 49.7729 -15.7275 52.2735C-15.1132 50.8829 -14.4702 49.5203 -13.795 48.1925ZM-14.5364 56.9404C-14.2557 54.1688 -14.0211 51.3258 -13.8129 48.4412C-14.4937 49.7903 -15.1409 51.1756 -15.7598 52.5884C-16.0425 55.3467 -16.342 58.0707 -16.6769 60.7307C-15.9922 59.4415 -15.2802 58.1755 -14.5364 56.9404ZM-15.7467 66.3712C-15.2705 63.4298 -14.8844 60.3469 -14.5594 57.1686C-15.3073 58.4181 -16.0232 59.6988 -16.711 61.003C-17.0992 64.0606 -17.5355 67.0319 -18.0472 69.8727C-17.6805 69.2833 -17.3076 68.6984 -16.9279 68.119C-16.5421 67.5302 -16.1472 66.9482 -15.7467 66.3712ZM-18.1611 77.1444C-17.1755 73.9306 -16.4037 70.3813 -15.7834 66.5947C-16.1432 67.1159 -16.4989 67.6409 -16.8469 68.172C-17.2708 68.8186 -17.6861 69.4719 -18.0936 70.1305C-18.7642 73.8109 -19.5646 77.2674 -20.5556 80.4036C-19.7821 79.3047 -18.9838 78.217 -18.1611 77.1444ZM246.712 40.9897L246.721 40.858L246.717 40.872L246.702 41.0207L246.712 40.9897ZM246.66 41.6939L246.679 41.4473L246.648 41.5512L246.622 41.8047L246.66 41.6939ZM246.608 42.3961L246.632 42.069L246.578 42.226C246.566 42.3352 246.555 42.4445 246.544 42.5537L246.608 42.3961ZM246.555 43.0945L246.585 42.7087L246.507 42.8983C246.494 43.027 246.479 43.1554 246.465 43.2839L246.555 43.0945ZM246.501 43.7864L246.534 43.3647L246.434 43.5741C246.419 43.713 246.404 43.8517 246.388 43.9905L246.501 43.7864ZM246.447 44.4786C246.459 44.3261 246.47 44.1734 246.483 44.0209C246.442 44.0942 246.401 44.1677 246.361 44.2408C246.345 44.3911 246.328 44.5412 246.311 44.6915C246.356 44.6205 246.401 44.5497 246.447 44.4786ZM246.389 45.1809C246.402 45.0162 246.416 44.8515 246.429 44.687C246.381 44.762 246.333 44.8372 246.286 44.9118L246.232 45.389C246.284 45.3195 246.337 45.2499 246.389 45.1809ZM246.331 45.8694C246.346 45.7004 246.359 45.5317 246.373 45.3629C246.32 45.4348 246.265 45.5073 246.21 45.5797C246.191 45.7446 246.172 45.9097 246.153 46.0745C246.213 46.0062 246.272 45.9377 246.331 45.8694ZM246.271 46.5663C246.287 46.3884 246.303 46.2109 246.318 46.0328L246.133 46.2456C246.112 46.4184 246.092 46.591 246.071 46.7637C246.138 46.6979 246.205 46.632 246.271 46.5663ZM246.211 47.2568L246.259 46.7143L246.053 46.9167C246.032 47.0916 246.012 47.2669 245.991 47.442C246.064 47.3802 246.138 47.3183 246.211 47.2568ZM246.149 47.9456C246.166 47.7609 246.183 47.5763 246.2 47.3913L245.974 47.5809C245.952 47.7602 245.93 47.939 245.908 48.1181L246.149 47.9456ZM246.086 48.6333C246.103 48.4452 246.121 48.2572 246.138 48.069L245.892 48.2444C245.869 48.4261 245.848 48.6079 245.824 48.7893L246.086 48.6333ZM161.298 93.3896C160.657 92.9436 160.01 92.488 159.358 92.0238C158.667 92.3067 157.973 92.5887 157.278 92.87C157.938 93.3083 158.594 93.7386 159.245 94.16C159.932 93.9049 160.616 93.6479 161.298 93.3896ZM163.336 94.7855C162.693 94.3493 162.048 93.9107 161.394 93.4573C160.714 93.7151 160.031 93.9714 159.346 94.2259C160.004 94.6515 160.658 95.0704 161.306 95.4789C161.986 95.2505 162.662 95.0189 163.336 94.7855ZM165.371 96.1455C164.73 95.7226 164.086 95.2941 163.435 94.8537C162.763 95.0866 162.09 95.3178 161.412 95.5459C162.067 95.9581 162.718 96.3641 163.362 96.7588C164.035 96.5576 164.705 96.3535 165.371 96.1455ZM167.393 97.4613C166.758 97.0542 166.12 96.6396 165.476 96.2148C164.812 96.4225 164.144 96.6257 163.474 96.8269C164.12 97.2225 164.764 97.6127 165.4 97.9907C166.066 97.8167 166.733 97.6434 167.393 97.4613ZM169.407 98.736C168.778 98.344 168.144 97.9427 167.504 97.5329C166.848 97.7147 166.182 97.8867 165.519 98.0604C166.17 98.4471 166.819 98.8284 167.46 99.1965C168.116 99.0517 168.759 98.8903 169.407 98.736ZM171.44 99.9834C170.808 99.6021 170.17 99.2101 169.527 98.8102C168.882 98.9643 168.24 99.124 167.588 99.2688C168.224 99.6336 168.857 99.9932 169.483 100.34C170.137 100.223 170.795 100.112 171.44 99.9834ZM173.441 101.171C172.824 100.811 172.2 100.44 171.573 100.062C170.93 100.191 170.273 100.3 169.623 100.417C170.265 100.772 170.902 101.116 171.533 101.453C172.174 101.365 172.809 101.271 173.441 101.171ZM175.458 102.326C174.838 101.978 174.212 101.618 173.581 101.252C172.953 101.352 172.323 101.448 171.686 101.536C172.322 101.873 172.949 102.198 173.574 102.516C174.205 102.458 174.835 102.398 175.458 102.326ZM177.445 103.42C176.841 103.094 176.23 102.757 175.614 102.412C174.995 102.485 174.367 102.543 173.738 102.602C174.368 102.922 174.991 103.231 175.609 103.532C176.227 103.504 176.837 103.463 177.445 103.42ZM179.439 104.47C178.836 104.159 178.228 103.84 177.614 103.51C177.013 103.554 176.41 103.597 175.799 103.626C176.417 103.926 177.028 104.215 177.634 104.496C178.242 104.496 178.841 104.485 179.439 104.47ZM181.405 105.459C180.816 105.17 180.224 104.875 179.625 104.568C179.036 104.584 178.442 104.592 177.843 104.594C178.445 104.871 179.042 105.139 179.633 105.398C180.229 105.427 180.819 105.447 181.405 105.459ZM183.367 106.399C182.787 106.128 182.204 105.852 181.612 105.564C181.042 105.553 180.467 105.537 179.887 105.511C180.482 105.77 181.07 106.018 181.655 106.26C182.231 106.315 182.801 106.359 183.367 106.399ZM185.293 107.272C184.738 107.028 184.181 106.779 183.616 106.517C183.066 106.481 182.51 106.435 181.95 106.383C182.523 106.618 183.09 106.841 183.653 107.058C184.205 107.139 184.75 107.207 185.293 107.272ZM187.159 108.069C186.642 107.855 186.124 107.639 185.599 107.41C185.081 107.35 184.557 107.279 184.031 107.206C184.563 107.409 185.089 107.6 185.613 107.787C186.133 107.889 186.648 107.982 187.159 108.069ZM188.957 108.79C188.49 108.609 188.023 108.428 187.549 108.234C187.102 108.161 186.654 108.085 186.2 108.001C186.662 108.162 187.116 108.31 187.571 108.46C188.036 108.574 188.499 108.688 188.957 108.79ZM190.333 109.308C190.05 109.205 189.771 109.106 189.487 108.999C189.267 108.951 189.051 108.91 188.83 108.86C189.335 109.017 189.837 109.167 190.333 109.308ZM-10.8925 19.8016C-10.8236 17.5185 -10.7449 15.2548 -10.648 13.0241C-11.0239 14.6296 -11.3672 16.2844 -11.6826 17.9794C-11.8742 20.0606 -12.043 22.1774 -12.1975 24.3171C-11.7931 22.7699 -11.3597 21.2623 -10.8925 19.8016ZM-11.0995 27.5334C-11.0381 25.0638 -10.9761 22.6 -10.9033 20.158C-11.3813 21.6762 -11.8239 23.2445 -12.2362 24.854C-12.3994 27.1547 -12.5466 29.4809 -12.6875 31.8173C-12.1904 30.3477 -11.6627 28.9171 -11.0995 27.5334ZM-11.3153 35.6867C-11.238 33.0921 -11.1731 30.4846 -11.1081 27.8822L-11.1063 27.8095C-11.6757 29.2243 -12.2084 30.6879 -12.71 32.1912C-12.7938 33.5859 -12.8754 34.984 -12.957 36.382C-13.0213 37.4833 -13.0856 38.5846 -13.151 39.6845C-12.5716 38.3129 -11.9611 36.9776 -11.3153 35.6867ZM-11.6345 44.269C-11.5056 41.5177 -11.4066 38.7263 -11.3224 35.9189C-11.972 37.2289 -12.5861 38.583 -13.1684 39.9747C-13.3282 42.6584 -13.4948 45.3318 -13.6824 47.9723C-13.0316 46.7028 -12.3502 45.466 -11.6345 44.269ZM-12.2029 53.3302C-11.9669 50.4477 -11.7874 47.4855 -11.6446 44.4749C-12.363 45.6852 -13.0468 46.9356 -13.7001 48.2194C-13.9075 51.1134 -14.1411 53.9668 -14.4203 56.749C-13.7109 55.5795 -12.9729 54.4378 -12.2029 53.3302ZM-13.2906 63.0374C-12.8386 60.0019 -12.4911 56.8149 -12.2183 53.5222C-12.991 54.6401 -13.7312 55.7923 -14.4426 56.9727C-14.7647 60.1529 -15.1468 63.2395 -15.6187 66.1857C-14.8695 65.113 -14.0948 64.0615 -13.2906 63.0374ZM-15.6565 74.0304C-14.6626 70.7481 -13.9044 67.1166 -13.3194 63.2335C-14.1267 64.2663 -14.9036 65.327 -15.6552 66.4088C-16.266 70.1774 -17.0245 73.7152 -17.9929 76.9247C-17.237 75.9448 -16.4603 74.9777 -15.6565 74.0304ZM246.9 39.7172L246.902 39.661L246.898 39.7259L246.9 39.7172ZM246.869 40.4537L246.879 40.2147L246.857 40.303L246.84 40.5523L246.869 40.4537ZM246.837 41.1818C246.842 41.0739 246.846 40.9658 246.851 40.8579L246.808 41.007L246.784 41.3376L246.837 41.1818ZM246.804 41.9131L246.821 41.5253C246.8 41.5879 246.778 41.6507 246.756 41.7134L246.727 42.1025L246.804 41.9131ZM246.77 42.6418C246.777 42.4964 246.783 42.3508 246.79 42.2055L246.704 42.4186C246.693 42.5621 246.683 42.7056 246.672 42.849L246.77 42.6418ZM246.734 43.3628C246.742 43.2062 246.75 43.0496 246.758 42.8929L246.65 43.1199C246.639 43.2733 246.626 43.4272 246.614 43.5808L246.734 43.3628ZM246.698 44.0846L246.723 43.5838L246.596 43.8152C246.583 43.9785 246.571 44.1418 246.557 44.305L246.698 44.0846ZM246.661 44.8149C246.67 44.6372 246.679 44.4591 246.689 44.2813L246.541 44.5122C246.527 44.6867 246.512 44.8615 246.498 45.0361C246.553 44.9619 246.606 44.8891 246.661 44.8149ZM246.622 45.5361C246.631 45.3551 246.641 45.174 246.651 44.9931C246.595 45.0677 246.539 45.1428 246.483 45.2181C246.468 45.3941 246.454 45.57 246.439 45.7459C246.5 45.6759 246.562 45.6056 246.622 45.5361ZM246.582 46.2604C246.593 46.0716 246.603 45.8827 246.613 45.6939C246.551 45.7653 246.488 45.8374 246.425 45.9092C246.41 46.0933 246.394 46.2774 246.378 46.4614C246.446 46.3943 246.515 46.3271 246.582 46.2604ZM246.54 46.9802C246.551 46.788 246.563 46.5959 246.573 46.4039C246.505 46.4721 246.435 46.5408 246.365 46.6094C246.349 46.7958 246.332 46.9822 246.316 47.1685C246.391 47.1056 246.466 47.0424 246.54 46.9802ZM246.498 47.6972C246.51 47.5019 246.521 47.3064 246.532 47.111C246.457 47.1745 246.38 47.2388 246.304 47.3028C246.288 47.4925 246.271 47.6819 246.254 47.8714C246.335 47.8132 246.418 47.7548 246.498 47.6972ZM246.453 48.4138C246.466 48.2152 246.479 48.0165 246.491 47.8174C246.409 47.8761 246.325 47.9356 246.242 47.9948C246.225 48.1873 246.207 48.3795 246.189 48.5718L246.453 48.4138ZM163.464 92.5615C162.829 92.0911 162.188 91.6117 161.543 91.1249C160.851 91.4112 160.157 91.6971 159.46 91.9821C160.113 92.4467 160.761 92.9041 161.403 93.3502C162.092 93.089 162.779 92.8261 163.464 92.5615ZM165.474 94.0337C164.841 93.5756 164.201 93.1055 163.557 92.6296C162.874 92.8939 162.188 93.1563 161.5 93.4175C162.154 93.8713 162.8 94.3113 163.444 94.7478C164.124 94.512 164.801 94.2742 165.474 94.0337ZM167.486 95.4696C166.852 95.0227 166.214 94.5672 165.571 94.1026C164.898 94.343 164.222 94.5805 163.544 94.8161C164.197 95.2575 164.842 95.6865 165.484 96.1102C166.155 95.9002 166.821 95.6861 167.486 95.4696ZM169.485 96.8601C168.855 96.427 168.224 95.9903 167.584 95.5398C166.921 95.7557 166.257 95.9695 165.588 96.179C166.235 96.6054 166.876 97.0209 167.513 97.4293M171.501 98.2266C170.868 97.8032 170.232 97.3733 169.588 96.9316C168.935 97.1231 168.285 97.3175 167.625 97.5008C168.266 97.9118 168.902 98.3133 169.533 98.706C170.191 98.5485 170.851 98.3938 171.501 98.2266ZM173.491 99.5393C172.869 99.1351 172.243 98.7228 171.61 98.3001C170.964 98.4671 170.308 98.623 169.653 98.7802C170.3 99.1821 170.942 99.5753 171.578 99.9584C172.223 99.8291 172.854 99.6796 173.491 99.5393ZM175.507 100.829C174.88 100.435 174.248 100.031 173.611 99.6171C172.977 99.7572 172.349 99.9063 171.707 100.035C172.338 100.415 172.964 100.787 173.584 101.148C174.227 101.045 174.872 100.944 175.507 100.829ZM177.493 102.06C176.879 101.686 176.258 101.302 175.633 100.909C175.003 101.024 174.363 101.125 173.725 101.228C174.361 101.598 174.993 101.959 175.618 102.31C176.249 102.235 176.871 102.148 177.493 102.06ZM179.476 103.248C178.867 102.89 178.252 102.521 177.632 102.144C177.014 102.232 176.395 102.318 175.768 102.392C176.39 102.74 177.008 103.08 177.619 103.409C178.243 103.363 178.861 103.308 179.476 103.248ZM181.456 104.389C180.852 104.048 180.241 103.695 179.626 103.335C179.018 103.396 178.407 103.453 177.789 103.499C178.408 103.83 179.022 104.155 179.63 104.467C180.244 104.45 180.852 104.422 181.456 104.389ZM183.416 105.473C182.825 105.153 182.226 104.821 181.624 104.482C181.027 104.516 180.428 104.545 179.821 104.564C180.425 104.873 181.024 105.174 181.617 105.465C182.222 105.476 182.822 105.478 183.416 105.473ZM185.375 106.509C184.79 106.207 184.197 105.892 183.601 105.571C183.016 105.578 182.428 105.578 181.833 105.569C182.435 105.861 183.031 106.146 183.622 106.42C184.212 106.459 184.795 106.487 185.375 106.509ZM187.307 107.482C186.741 107.205 186.168 106.914 185.591 106.618C185.022 106.598 184.446 106.568 183.867 106.532C184.45 106.801 185.029 107.061 185.602 107.312C186.176 107.378 186.744 107.433 187.307 107.482ZM189.197 108.384C188.657 108.134 188.108 107.87 187.558 107.602C187.011 107.557 186.457 107.501 185.9 107.44C186.456 107.68 187.009 107.915 187.555 108.138C188.108 108.229 188.654 108.31 189.197 108.384ZM191.054 109.22C190.545 108.998 190.029 108.763 189.511 108.526C189.005 108.459 188.497 108.389 187.981 108.308C188.488 108.512 188.993 108.714 189.491 108.903C190.017 109.016 190.538 109.123 191.054 109.22ZM192.797 109.956C192.351 109.773 191.9 109.581 191.447 109.386C191.005 109.307 190.561 109.222 190.112 109.13C190.556 109.294 190.999 109.459 191.436 109.612C191.894 109.734 192.347 109.846 192.797 109.956ZM194.181 110.502C193.925 110.404 193.668 110.302 193.411 110.201C193.145 110.139 192.874 110.07 192.605 110.004C193.135 110.177 193.661 110.345 194.181 110.502ZM-9.22978 23.3933C-9.23569 21.9967 -9.24315 20.6005 -9.25068 19.2071C-9.25735 17.9817 -9.26386 16.7588 -9.2695 15.5398C-9.81632 16.9113 -10.3235 18.3396 -10.7961 19.8167C-10.8706 22.2879 -10.934 24.7821 -10.9962 27.2828C-10.4428 25.9387 -9.85555 24.6398 -9.22978 23.3933ZM-9.2285 31.8906C-9.21283 29.1423 -9.21737 26.3746 -9.22874 23.6076C-9.8576 24.8721 -10.4476 26.1901 -11.003 27.5539L-11.0113 27.8845C-11.0746 30.4175 -11.1376 32.9554 -11.212 35.4814C-10.5855 34.2407 -9.92546 33.0419 -9.2285 31.8906ZM-9.36803 40.7844C-9.28815 37.9218 -9.24721 35.0119 -9.22945 32.0793C-9.92897 33.2434 -10.5909 34.4561 -11.2191 35.7106C-11.3031 38.5282 -11.4013 41.3299 -11.5295 44.0922C-10.8418 42.9509 -10.1221 41.8466 -9.36803 40.7844ZM-9.80195 50.1295C-9.59814 47.1509 -9.46203 44.0835 -9.373 40.9592C-10.1291 42.0311 -10.85 43.1457 -11.5389 44.2974C-11.6807 47.3145 -11.859 50.283 -12.0932 53.1729C-11.9629 52.9868 -11.8319 52.8013 -11.6997 52.617C-11.0883 51.7649 -10.4549 50.936 -9.80195 50.1295ZM-10.8173 60.0831C-10.3732 56.9699 -10.0489 53.6928 -9.81331 50.2992C-10.4345 51.07 -11.0378 51.861 -11.6208 52.6737C-11.7849 52.9024 -11.9474 53.1331 -12.1087 53.3649C-12.3786 56.6571 -12.7227 59.8448 -13.1701 62.883C-12.4124 61.9243 -11.6287 60.9894 -10.8173 60.0831ZM-13.2325 71.3173C-12.1941 67.9702 -11.4195 64.2513 -10.8431 60.2604C-11.6559 61.1726 -12.4404 62.1128 -13.1989 63.0776C-13.7755 66.9465 -14.5218 70.5699 -15.5004 73.8501C-14.7654 72.9897 -14.0099 72.1442 -13.2325 71.3173ZM-20.2389 83.9902C-20.565 84.3015 -20.9011 84.598 -21.2466 84.8811C-21.5062 85.3477 -21.7763 85.7982 -22.0543 86.2358C-21.8768 86.0465 -21.7021 85.8526 -21.5308 85.6537C-21.0797 85.1299 -20.6495 84.5748 -20.2389 83.9902ZM247.038 39.1475L247.041 38.9264L247.026 38.999L247.017 39.2348L247.038 39.1475ZM247.025 39.9097L247.031 39.5907L246.997 39.7308L246.983 40.0582L247.025 39.9097ZM247.013 40.67L247.019 40.2821L246.965 40.4695L246.948 40.8575L247.013 40.67ZM246.998 41.4301C247.001 41.2815 247.005 41.133 247.007 40.9845L246.934 41.1992C246.927 41.3467 246.92 41.4942 246.913 41.6416L246.998 41.4301ZM246.983 42.1874L246.993 41.7031L246.9 41.9339L246.878 42.4128L246.983 42.1874ZM246.967 42.94L246.979 42.4254L246.866 42.6653C246.858 42.8332 246.85 43.001 246.841 43.169C246.884 43.0925 246.926 43.0161 246.967 42.94ZM246.95 43.6908L246.963 43.1499C246.919 43.2297 246.875 43.3099 246.83 43.3901L246.804 43.9197C246.853 43.8433 246.902 43.7668 246.95 43.6908ZM246.932 44.4437C246.937 44.2555 246.941 44.0671 246.945 43.8789C246.895 43.958 246.845 44.0372 246.794 44.1164C246.784 44.3013 246.775 44.4867 246.766 44.6716C246.821 44.5958 246.876 44.5201 246.932 44.4437ZM246.912 45.2022C246.917 45.0064 246.923 44.8108 246.928 44.615C246.869 44.6936 246.813 44.7718 246.756 44.8499C246.746 45.0389 246.735 45.228 246.725 45.4171C246.788 45.3453 246.851 45.2733 246.912 45.2022ZM246.891 45.9503C246.897 45.752 246.902 45.5535 246.908 45.3552C246.845 45.4278 246.781 45.5014 246.717 45.5747C246.706 45.7689 246.696 45.9631 246.685 46.1571C246.754 46.0883 246.822 46.0194 246.891 45.9503ZM246.869 46.6999C246.875 46.4967 246.882 46.2936 246.888 46.0904C246.817 46.1612 246.747 46.2311 246.677 46.3018C246.666 46.4991 246.653 46.6963 246.642 46.8935C246.718 46.8288 246.793 46.7646 246.869 46.6999ZM246.846 47.4475C246.852 47.2412 246.858 47.0349 246.865 46.8285C246.787 46.8944 246.712 46.9593 246.634 47.0251C246.623 47.225 246.611 47.425 246.599 47.625C246.682 47.5655 246.763 47.5069 246.846 47.4475ZM246.821 48.1936C246.828 47.9843 246.835 47.7751 246.842 47.5657L246.592 47.7451C246.58 47.948 246.567 48.1507 246.554 48.3535L246.821 48.1936ZM165.624 91.7187C164.995 91.2276 164.36 90.7263 163.722 90.2188C163.031 90.5079 162.337 90.7963 161.641 91.0841C162.287 91.5712 162.93 92.0512 163.566 92.522C164.255 92.2558 164.941 91.9881 165.624 91.7187ZM167.612 93.2585C166.984 92.7777 166.35 92.2857 165.713 91.7882C165.031 92.057 164.346 92.3242 163.659 92.5901C164.304 93.0667 164.945 93.5372 165.58 93.9962C166.26 93.7529 166.937 93.5066 167.612 93.2585ZM169.6 94.7677C168.974 94.2984 168.34 93.8155 167.703 93.3282C167.03 93.5759 166.355 93.822 165.676 94.065C166.32 94.53 166.96 94.9876 167.593 95.4343C168.265 95.2151 168.935 94.9935 169.6 94.7677ZM171.582 96.2384C170.959 95.7824 170.328 95.3124 169.695 94.8378C169.03 95.0638 168.362 95.2853 167.692 95.5046C168.333 95.9562 168.966 96.3932 169.597 96.827C170.26 96.6323 170.926 96.4413 171.582 96.2384ZM173.562 97.6683C172.939 97.2235 172.314 96.7743 171.681 96.3114C171.027 96.5138 170.361 96.7041 169.7 96.8984C170.345 97.3409 170.983 97.7711 171.617 98.1952C172.271 98.0261 172.916 97.8469 173.562 97.6683ZM175.558 99.0739C174.933 98.6391 174.303 98.1973 173.667 97.7436C173.023 97.9221 172.378 98.1001 171.726 98.2689C172.362 98.6929 172.991 99.1064 173.616 99.512C174.265 99.3684 174.917 99.2289 175.558 99.0739ZM177.536 100.431C176.919 100.013 176.296 99.5871 175.667 99.1508C175.03 99.3054 174.381 99.4461 173.735 99.5897C174.375 100.004 175.008 100.409 175.636 100.804C176.275 100.687 176.907 100.56 177.536 100.431ZM179.513 101.747C178.9 101.345 178.28 100.933 177.655 100.511C177.028 100.641 176.398 100.766 175.763 100.883C176.392 101.279 177.017 101.665 177.636 102.041C178.267 101.951 178.892 101.851 179.513 101.747ZM181.487 103.021C180.877 102.635 180.261 102.237 179.639 101.83C179.022 101.934 178.402 102.035 177.775 102.125C178.399 102.504 179.018 102.874 179.631 103.233C180.255 103.17 180.873 103.099 181.487 103.021ZM183.456 104.25C182.85 103.879 182.238 103.497 181.622 103.107C181.012 103.185 180.399 103.256 179.781 103.32C180.402 103.683 181.018 104.038 181.628 104.381C182.243 104.346 182.851 104.301 183.456 104.25ZM185.41 105.425C184.814 105.073 184.211 104.71 183.603 104.339C183.005 104.391 182.404 104.438 181.795 104.474C182.404 104.816 183.008 105.15 183.606 105.472C184.213 105.464 184.814 105.449 185.41 105.425ZM187.365 106.554C186.773 106.219 186.174 105.873 185.57 105.518C184.982 105.543 184.389 105.561 183.79 105.57C184.398 105.896 185.001 106.214 185.596 106.52C186.192 106.541 186.781 106.551 187.365 106.554ZM189.3 107.622C188.722 107.31 188.136 106.986 187.545 106.654C186.969 106.653 186.387 106.641 185.8 106.622C186.393 106.925 186.981 107.22 187.562 107.504C188.147 107.552 188.727 107.592 189.3 107.622ZM191.204 108.625C190.642 108.336 190.072 108.036 189.499 107.728C188.939 107.7 188.372 107.663 187.801 107.618C188.379 107.898 188.953 108.17 189.519 108.43C190.086 108.505 190.648 108.569 191.204 108.625ZM193.082 109.563C192.544 109.302 191.999 109.028 191.45 108.749C190.914 108.697 190.373 108.638 189.827 108.569C190.374 108.818 190.918 109.06 191.454 109.292C192.003 109.391 192.545 109.482 193.082 109.563ZM194.925 110.432C194.414 110.198 193.896 109.953 193.374 109.702C192.871 109.628 192.363 109.548 191.851 109.459C192.378 109.683 192.903 109.901 193.421 110.108C193.928 110.225 194.428 110.331 194.925 110.432ZM196.681 111.211C196.235 111.02 195.783 110.817 195.329 110.612C194.883 110.525 194.43 110.426 193.976 110.326C194.435 110.505 194.889 110.678 195.34 110.844C195.79 110.971 196.239 111.097 196.681 111.211ZM198.031 111.772C197.764 111.664 197.493 111.549 197.223 111.436C196.951 111.369 196.679 111.302 196.404 111.23C196.953 111.422 197.494 111.601 198.031 111.772ZM-7.1894 19.7497C-7.26642 16.9944 -7.35594 14.2348 -7.44694 11.4884C-8.06344 12.7001 -8.63733 13.9747 -9.17365 15.3028C-9.16808 16.6 -9.16084 17.9018 -9.15381 19.2064C-9.14659 20.5363 -9.13959 21.8688 -9.13366 23.2019C-8.5234 21.9992 -7.87638 20.8465 -7.1894 19.7497ZM-7.00151 28.5597C-7.03903 25.7009 -7.10455 22.8157 -7.18448 19.9253C-7.87353 21.034 -8.52134 22.2 -9.13285 23.4161C-9.12107 26.1929 -9.11607 28.9709 -9.13075 31.7297C-8.45685 30.6262 -7.74834 29.5677 -7.00151 28.5597ZM-6.99667 37.7321C-6.95441 34.7753 -6.96076 31.7632 -6.99936 28.7208C-7.7475 29.7374 -8.457 30.8052 -9.13186 31.9182C-9.14863 34.8565 -9.18852 37.7724 -9.2671 40.6417C-8.92485 40.1631 -8.57535 39.6933 -8.21824 39.2329C-7.82094 38.7202 -7.41308 38.2205 -6.99667 37.7321ZM-7.33784 47.3144C-7.15247 44.2591 -7.04649 41.1054 -6.99871 37.8855C-7.38767 38.3443 -7.76965 38.8122 -8.14186 39.2922C-8.52728 39.7894 -8.90384 40.2981 -9.27212 40.8165C-9.35981 43.9439 -9.49413 47.0149 -9.69626 49.9979C-8.93957 49.0696 -8.15487 48.1729 -7.33784 47.3144ZM-8.33627 57.4931C-7.88105 54.3133 -7.56211 50.955 -7.34719 47.4677C-8.16499 48.3317 -8.95042 49.2338 -9.70772 50.1673C-9.94068 53.5594 -10.2609 56.8375 -10.7007 59.9524C-9.93816 59.1062 -9.14998 58.2861 -8.33627 57.4931ZM-10.8928 68.9534C-9.77463 65.5543 -8.95262 61.7532 -8.35862 57.6534C-9.1735 58.4513 -9.96287 59.2762 -10.7263 60.1274C-11.2946 64.1042 -12.0581 67.8147 -13.0819 71.1593C-12.3709 70.4077 -11.6419 69.6714 -10.8928 68.9534ZM-20.4086 83.0389C-20.8489 83.323 -21.3026 83.5885 -21.7707 83.8334C-22.035 84.4981 -22.3106 85.1441 -22.5987 85.7693C-22.1583 85.4728 -21.7331 85.1543 -21.3212 84.8168C-21.0035 84.2451 -20.6999 83.652 -20.4086 83.0389ZM-18.9865 82.0157C-19.3956 82.3411 -19.8182 82.6478 -20.2537 82.9358C-20.5302 83.525 -20.8188 84.0947 -21.1192 84.6463C-20.7144 84.3041 -20.3228 83.9432 -19.9448 83.5624C-19.6121 83.0665 -19.2934 82.5505 -18.9865 82.0157ZM-17.7477 80.9366C-18.0826 81.2556 -18.4267 81.5617 -18.7816 81.8526C-19.0402 82.3127 -19.3089 82.7578 -19.5861 83.1904C-19.3214 82.91 -19.0623 82.6215 -18.8112 82.3216C-18.4424 81.8806 -18.0888 81.4175 -17.7477 80.9366ZM247.166 37.7862L247.164 37.5751L247.156 37.627L247.153 37.8546L247.166 37.7862ZM247.174 38.5762L247.171 38.2645L247.145 38.3959L247.14 38.7164L247.174 38.5762ZM247.181 39.3679C247.18 39.2375 247.179 39.1072 247.178 38.977L247.134 39.1598L247.128 39.5517L247.181 39.3679ZM247.187 40.1572L247.184 39.7098L247.122 39.9244L247.114 40.3724C247.139 40.3005 247.163 40.2289 247.187 40.1572ZM247.193 40.9435C247.192 40.78 247.19 40.6164 247.189 40.4529C247.163 40.5307 247.136 40.6087 247.109 40.6867C247.106 40.8493 247.104 41.0118 247.1 41.1743L247.193 40.9435ZM247.196 41.7317L247.194 41.2021L247.095 41.4499L247.085 41.9716L247.196 41.7317ZM247.2 42.5142C247.199 42.3293 247.198 42.1441 247.198 41.9593C247.159 42.0425 247.119 42.1261 247.08 42.2097C247.076 42.3918 247.073 42.5743 247.069 42.7562C247.113 42.6752 247.156 42.5949 247.2 42.5142ZM247.201 43.2977C247.201 43.1047 247.201 42.9117 247.2 42.7185C247.155 42.8008 247.11 42.8836 247.064 42.9661C247.059 43.1551 247.055 43.3441 247.05 43.5333C247.101 43.4546 247.152 43.3759 247.201 43.2977ZM247.202 44.075C247.202 43.8761 247.202 43.6772 247.201 43.4784C247.15 43.559 247.098 43.6403 247.046 43.7214C247.042 43.9166 247.037 44.1121 247.032 44.3071L247.202 44.075ZM247.202 44.8597C247.202 44.653 247.203 44.4465 247.203 44.2395C247.144 44.319 247.086 44.3983 247.028 44.4776C247.023 44.6798 247.017 44.8819 247.012 45.084C247.075 45.0094 247.137 44.9348 247.202 44.8597ZM247.2 45.641C247.201 45.4307 247.201 45.2203 247.201 45.0101C247.136 45.0871 247.073 45.1627 247.008 45.2391C247.002 45.443 246.997 45.6469 246.991 45.8505L247.2 45.641ZM247.197 46.4195C247.198 46.2055 247.199 45.9915 247.2 45.7774L246.987 45.9907C246.981 46.1988 246.975 46.4069 246.968 46.6151L247.197 46.4195ZM247.193 47.1972C247.195 46.9799 247.196 46.7628 247.197 46.5455L246.964 46.7437C246.958 46.9546 246.951 47.1654 246.945 47.3761L247.193 47.1972ZM247.188 47.9725C247.19 47.7528 247.191 47.5327 247.193 47.3132L246.941 47.4944C246.934 47.7078 246.927 47.9209 246.92 48.1341L247.188 47.9725ZM167.777 90.8622C167.154 90.3496 166.529 89.8334 165.897 89.3039C165.206 89.5962 164.513 89.8878 163.818 90.1787C164.457 90.6869 165.093 91.1883 165.722 91.6801C166.41 91.4091 167.095 91.1362 167.777 90.8622ZM169.742 92.4646C169.12 91.9619 168.494 91.4519 167.862 90.9325C167.181 91.2063 166.498 91.4789 165.811 91.7496C166.449 92.2474 167.084 92.74 167.713 93.2212C168.392 92.9712 169.069 92.7193 169.742 92.4646ZM171.706 94.0371C171.086 93.5457 170.46 93.0441 169.83 92.5353C169.158 92.7897 168.482 93.0411 167.805 93.291C168.442 93.7788 169.077 94.2618 169.704 94.732C170.375 94.5039 171.042 94.2717 171.706 94.0371ZM173.658 95.5704C173.043 95.0933 172.421 94.6031 171.796 94.108C171.133 94.3424 170.468 94.5742 169.799 94.8022C170.433 95.2773 171.067 95.7498 171.69 96.2064C172.352 96.0012 173.003 95.7836 173.658 95.5704ZM175.625 97.0815C175.007 96.6126 174.381 96.1305 173.752 95.6426C173.099 95.8557 172.451 96.0738 171.791 96.2789C172.424 96.7415 173.051 97.1935 173.674 97.6381C174.328 97.4567 174.979 97.2725 175.625 97.0815ZM177.588 98.5503C176.97 98.0931 176.35 97.632 175.722 97.1562C175.079 97.3471 174.43 97.532 173.778 97.7134C174.416 98.1674 175.046 98.6092 175.672 99.0444C176.317 98.8876 176.952 98.7181 177.588 98.5503ZM179.556 99.9879C178.94 99.5432 178.32 99.092 177.692 98.6283C177.058 98.7962 176.424 98.9645 175.782 99.1212C176.414 99.5597 177.039 99.987 177.66 100.406C178.298 100.274 178.928 100.132 179.556 99.9879ZM181.522 101.386C180.908 100.956 180.29 100.517 179.666 100.068C179.04 100.212 178.414 100.355 177.779 100.487C178.406 100.91 179.028 101.323 179.644 101.726C180.275 101.62 180.901 101.507 181.522 101.386ZM183.481 102.741C182.872 102.326 182.257 101.902 181.637 101.468C181.019 101.588 180.397 101.702 179.769 101.808C180.394 102.217 181.013 102.616 181.626 103.004C182.25 102.924 182.868 102.837 183.481 102.741ZM185.435 104.052C184.83 103.653 184.219 103.244 183.603 102.824C182.994 102.92 182.38 103.008 181.76 103.089C182.382 103.482 182.998 103.866 183.608 104.238C184.223 104.185 184.831 104.122 185.435 104.052ZM187.38 105.313C186.782 104.932 186.177 104.54 185.568 104.139C184.968 104.209 184.366 104.274 183.756 104.328C184.368 104.701 184.975 105.065 185.575 105.418C186.182 105.392 186.784 105.357 187.38 105.313ZM189.328 106.532C188.732 106.167 188.129 105.789 187.522 105.403C186.931 105.447 186.336 105.484 185.735 105.511C186.346 105.869 186.952 106.218 187.55 106.555C188.148 106.556 188.742 106.549 189.328 106.532ZM191.251 107.688C190.667 107.344 190.077 106.989 189.48 106.624C188.901 106.643 188.315 106.651 187.724 106.651C188.323 106.987 188.917 107.315 189.504 107.63C190.092 107.659 190.675 107.678 191.251 107.688ZM193.166 108.79C192.591 108.467 192.008 108.131 191.421 107.787C190.854 107.779 190.28 107.761 189.701 107.735C190.293 108.051 190.879 108.358 191.458 108.653C192.033 108.709 192.602 108.754 193.166 108.79ZM195.049 109.824C194.494 109.526 193.931 109.217 193.364 108.9C192.813 108.867 192.255 108.823 191.692 108.771C192.261 109.059 192.825 109.339 193.382 109.607C193.944 109.689 194.499 109.761 195.049 109.824ZM196.933 110.805C196.389 110.529 195.837 110.241 195.281 109.946C194.75 109.888 194.215 109.822 193.673 109.746C194.233 110.013 194.787 110.271 195.335 110.518C195.873 110.623 196.406 110.719 196.933 110.805ZM198.743 111.695C198.237 111.454 197.725 111.201 197.209 110.942C196.709 110.863 196.202 110.773 195.692 110.677C196.21 110.908 196.723 111.13 197.231 111.343C197.74 111.469 198.244 111.587 198.743 111.695ZM200.455 112.488C200.01 112.289 199.558 112.078 199.104 111.864C198.662 111.772 198.217 111.673 197.767 111.567C198.225 111.755 198.678 111.934 199.128 112.108C199.574 112.241 200.017 112.369 200.455 112.488ZM201.82 113.086C201.549 112.971 201.273 112.847 200.999 112.726C200.729 112.656 200.461 112.587 200.188 112.512C200.739 112.715 201.283 112.906 201.82 113.086ZM167.958 90.8942C168.59 91.4143 169.217 91.9242 169.84 92.4276C173.487 91.0456 177.047 89.596 180.519 88.0911C205.084 77.4443 225.205 64.0443 239.871 52.4381C224.404 62.9741 203.299 75.5821 178.247 86.5697C174.887 88.0435 171.456 89.4877 167.958 90.8942ZM165.991 89.2645C166.624 89.7946 167.249 90.3102 167.873 90.8237C171.387 89.4115 174.834 87.9609 178.209 86.4808C202.877 75.6611 223.716 63.2725 239.111 52.8414C222.972 62.1758 201.245 73.7285 176.199 84.8414C172.854 86.3258 169.449 87.8022 165.991 89.2645ZM-4.97782 16.6034C-5.1108 13.7363 -5.26417 10.8582 -5.42594 7.98712C-6.11245 9.032 -6.75371 10.1432 -7.35561 11.3121C-7.26433 14.067 -7.17398 16.8356 -7.09645 19.6003C-6.42953 18.5462 -5.72389 17.5458 -4.97782 16.6034ZM-4.6377 25.691C-4.71677 22.7378 -4.83258 19.751 -4.97097 16.7512C-5.71853 17.7021 -6.42424 18.712 -7.09168 19.7757C-7.01071 22.6726 -6.94433 25.5642 -6.90607 28.4298C-6.53419 27.9321 -6.15278 27.4469 -5.76162 26.9752C-5.39607 26.5347 -5.02053 26.1079 -4.6377 25.691ZM-4.52707 35.0972C-4.50988 32.064 -4.55095 28.9669 -4.63379 25.8312C-4.99188 26.2237 -5.34412 26.6237 -5.68692 27.0371C-6.10373 27.5401 -6.50907 28.0585 -6.90399 28.5908C-6.86433 31.6369 -6.85685 34.6531 -6.89792 37.6145C-6.14049 36.7336 -5.35073 35.8936 -4.52707 35.0972ZM-4.82214 44.8817C-4.64009 41.763 -4.54845 38.5363 -4.52755 35.232C-5.35252 36.0336 -6.14222 36.8806 -6.9001 37.7678C-6.94659 40.991 -7.05105 44.1481 -7.23475 47.2074C-6.45899 46.398 -5.65583 45.6212 -4.82214 44.8817ZM-5.8596 55.2428C-5.37433 52.0119 -5.04172 48.5882 -4.83009 45.02C-5.66421 45.7631 -6.46824 46.5428 -7.2437 47.3562C-7.45606 50.8425 -7.77224 54.2 -8.22335 57.3818C-7.45957 56.6425 -6.67155 55.9294 -5.8596 55.2428ZM-8.65945 66.9169C-7.42329 63.4786 -6.52181 59.6002 -5.88218 55.3911C-6.69455 56.0811 -7.48193 56.7989 -8.24576 57.5421C-8.83194 61.6267 -9.6431 65.4178 -10.7459 68.8145C-10.0663 68.1672 -9.3727 67.5326 -8.65945 66.9169ZM-21.543 81.8306C-21.8584 81.9476 -22.1812 82.0544 -22.5077 82.1562C-22.736 82.9103 -22.9737 83.6469 -23.221 84.3663C-22.6734 83.5181 -22.1151 82.6719 -21.543 81.8306ZM-21.0652 81.6425C-21.1705 81.6849 -21.2755 81.7273 -21.3814 81.7688C-21.9649 82.6244 -22.5344 83.4847 -23.0925 84.3478C-22.6671 84.1677 -22.2512 83.9742 -21.8473 83.764C-21.5746 83.0768 -21.3143 82.3692 -21.0652 81.6425ZM-19.4845 80.9196C-19.9579 81.1643 -20.4452 81.3898 -20.9468 81.5955C-21.1917 82.3132 -21.4476 83.0123 -21.7153 83.692C-21.2385 83.4381 -20.7766 83.1635 -20.3289 82.8689C-20.0345 82.2397 -19.7532 81.5898 -19.4845 80.9196ZM-17.9448 80.0288C-18.4001 80.3243 -18.8704 80.5995 -19.3553 80.8547C-19.6167 81.5115 -19.8903 82.1492 -20.1763 82.7675C-19.7215 82.4615 -19.2813 82.1355 -18.8563 81.788C-18.5386 81.222 -18.2353 80.6348 -17.9448 80.0288ZM-16.4899 78.9771C-16.9084 79.3105 -17.3405 79.6256 -17.7862 79.9218C-18.0621 80.5051 -18.3502 81.0702 -18.6506 81.6169C-18.2358 81.2671 -17.8356 80.8971 -17.4484 80.5085C-17.1159 80.0169 -16.7968 79.5058 -16.4899 78.9771ZM-15.23 77.8779C-15.569 78.2003 -15.9183 78.5087 -16.2775 78.8041C-16.5402 79.2663 -16.8129 79.7144 -17.095 80.1491C-16.7444 79.7803 -16.4064 79.3938 -16.0792 78.9925C-15.7867 78.6337 -15.5041 78.2616 -15.23 77.8779ZM-14.5545 77.0642C-14.1327 76.6193 -13.7256 76.1545 -13.3366 75.6657C-11.4459 73.2902 -9.93171 70.4066 -8.72954 67.1122C-9.44161 67.7305 -10.1341 68.368 -10.8125 69.0178C-11.8094 72.0417 -13.0401 74.749 -14.5545 77.0642ZM-16.1481 78.5734C-15.7327 78.2243 -15.3318 77.8558 -14.9443 77.4689C-13.3212 75.1045 -12.0114 72.3058 -10.9593 69.1565C-11.7095 69.8794 -12.4388 70.6211 -13.1504 71.3774C-13.9737 74.0251 -14.962 76.4406 -16.1481 78.5734ZM-17.7028 79.7471C-17.2374 79.4319 -16.7869 79.096 -16.3518 78.7393C-15.1438 76.6104 -14.1382 74.1916 -13.3008 71.5354C-14.0795 72.3686 -14.8372 73.2195 -15.5729 74.0865C-16.1879 76.1138 -16.8926 78.0092 -17.7028 79.7471ZM-19.3007 80.7158C-18.8051 80.4505 -18.3261 80.1625 -17.8615 79.8551C-17.0527 78.1429 -16.3481 76.2758 -15.7321 74.2768C-16.5382 75.233 -17.3179 76.2081 -18.0765 77.1961C-18.4524 78.4197 -18.8592 79.5948 -19.3007 80.7158ZM-20.9054 81.4746C-20.3992 81.2646 -19.908 81.0342 -19.4311 80.7841C-19.0045 79.7096 -18.6098 78.5858 -18.2444 77.4157C-19.0728 78.5017 -19.8762 79.6027 -20.6541 80.715C-20.7364 80.9707 -20.8205 81.2235 -20.9054 81.4746ZM-21.2817 81.6242C-21.1956 81.5901 -21.1094 81.5565 -21.0238 81.5217C-20.9645 81.3475 -20.9061 81.1719 -20.8481 80.996C-20.9933 81.2052 -21.1381 81.4145 -21.2817 81.6242ZM-22.4737 82.0451C-22.1248 81.935 -21.7817 81.8172 -21.4458 81.6894C-21.2125 81.3479 -20.9776 81.0068 -20.7402 80.6671C-19.7297 77.5279 -18.9157 74.0577 -18.2338 70.3586C-19.0278 71.6501 -19.7912 72.962 -20.529 74.2862C-21.1032 77.0143 -21.7423 79.6155 -22.4737 82.0451ZM-23.9231 82.4445C-23.4663 82.3373 -23.0217 82.2134 -22.5848 82.0785C-21.8742 79.7259 -21.2507 77.2107 -20.6891 74.5745C-21.4837 76.0102 -22.2485 77.4595 -22.989 78.9128C-23.2881 80.1178 -23.5985 81.2966 -23.9231 82.4445ZM121.886 105.651C121.522 105.802 121.159 105.953 120.795 106.103C121.519 105.868 122.24 105.632 122.961 105.394C122.603 105.48 122.245 105.566 121.886 105.651ZM124.113 104.727C123.561 104.957 123.007 105.186 122.454 105.415C123.008 105.282 123.562 105.148 124.114 105.012C124.662 104.83 125.209 104.647 125.756 104.463C125.209 104.553 124.662 104.641 124.113 104.727ZM126.334 103.803C125.722 104.058 125.11 104.313 124.497 104.568C125.11 104.471 125.721 104.371 126.33 104.269C126.941 104.063 127.552 103.856 128.162 103.647C127.555 103.702 126.945 103.754 126.334 103.803ZM128.557 102.873C127.913 103.143 127.269 103.412 126.624 103.682C127.268 103.629 127.911 103.573 128.552 103.514C129.207 103.29 129.861 103.064 130.513 102.838C129.862 102.851 129.214 102.869 128.557 102.873ZM130.801 101.933C130.131 102.215 129.458 102.496 128.787 102.777C129.468 102.772 130.138 102.748 130.813 102.733C131.464 102.507 132.114 102.28 132.762 102.051C132.112 102.018 131.456 101.975 130.801 101.933ZM133.01 101.001C132.342 101.283 131.675 101.565 131.005 101.847C131.671 101.889 132.34 101.935 133.001 101.967C133.666 101.733 134.33 101.497 134.992 101.261C134.338 101.184 133.671 101.088 133.01 101.001ZM135.198 100.078C134.53 100.361 133.858 100.643 133.188 100.926C133.863 101.014 134.54 101.107 135.207 101.184C135.886 100.941 136.563 100.697 137.239 100.453C136.56 100.33 135.885 100.214 135.198 100.078ZM137.413 99.1374C136.729 99.4279 136.047 99.7186 135.362 100.009C136.056 100.145 136.739 100.263 137.425 100.386C138.104 100.14 138.781 99.8924 139.458 99.6443C138.779 99.4801 138.1 99.316 137.413 99.1374ZM139.636 98.1917C138.945 98.4863 138.252 98.7806 137.559 99.0749C138.253 99.2546 138.939 99.4191 139.624 99.5834C140.306 99.3327 140.987 99.0811 141.667 98.8286C140.994 98.623 140.316 98.4093 139.636 98.1917ZM141.844 97.2488C141.155 97.5436 140.466 97.8381 139.775 98.1328C140.46 98.3515 141.143 98.5644 141.821 98.7713C142.51 98.5149 143.198 98.2578 143.884 97.9994C143.208 97.7559 142.529 97.5073 141.844 97.2488ZM144.055 96.3014C143.362 96.5987 142.668 96.8961 141.973 97.1935C142.662 97.453 143.345 97.702 144.025 97.9462C144.715 97.6861 145.404 97.4251 146.091 97.1631C145.417 96.883 144.739 96.5975 144.055 96.3014ZM146.269 95.3505C145.573 95.65 144.875 95.9495 144.177 96.2492C144.864 96.5464 145.545 96.8323 146.223 97.113C146.915 96.849 147.606 96.5839 148.295 96.3181C147.624 96.0029 146.949 95.6814 146.269 95.3505ZM148.48 94.396C147.782 94.6974 147.086 94.9986 146.386 95.3001C147.069 95.632 147.746 95.954 148.42 96.2697C149.112 96.0022 149.803 95.7339 150.492 95.4646C149.826 95.1157 149.155 94.7591 148.48 94.396ZM150.686 93.4433C149.991 93.7445 149.29 94.0461 148.592 94.3474C149.27 94.7115 149.943 95.0688 150.612 95.4182C151.306 95.1466 151.999 94.8745 152.69 94.6014C152.027 94.2235 151.36 93.8391 150.686 93.4433ZM152.899 92.4807C152.198 92.7858 151.5 93.0907 150.795 93.3961C151.469 93.7922 152.138 94.1785 152.802 94.5567C153.499 94.2813 154.193 94.0053 154.886 93.7283C154.229 93.3204 153.566 92.9045 152.899 92.4807ZM155.104 91.5218C154.407 91.8259 153.704 92.1307 153.004 92.4353C153.672 92.86 154.336 93.2761 154.995 93.6846C155.691 93.4064 156.385 93.1271 157.077 92.8473C156.424 92.4136 155.768 91.9742 155.104 91.5218ZM157.317 90.5545C156.613 90.8622 155.912 91.1696 155.206 91.4778C155.87 91.9306 156.527 92.3707 157.181 92.805C157.877 92.5234 158.572 92.2409 159.264 91.9577C158.62 91.4982 157.97 91.0289 157.317 90.5545ZM159.524 89.5875C158.823 89.8953 158.12 90.2032 157.415 90.5112C158.07 90.9865 158.72 91.4555 159.366 91.9158C160.064 91.6304 160.759 91.3441 161.453 91.0571C160.815 90.5754 160.172 90.086 159.524 89.5875ZM161.728 88.619C161.027 88.9275 160.325 89.2363 159.621 89.5453C160.27 90.0447 160.913 90.5339 161.552 91.0163C162.248 90.7281 162.943 90.4393 163.636 90.1497C163.005 89.6474 162.37 89.14 161.728 88.619ZM163.936 87.6453C163.233 87.9558 162.529 88.2666 161.822 88.5776C162.465 89.0993 163.1 89.6069 163.732 90.1098C164.428 89.8186 165.122 89.5265 165.814 89.234C165.194 88.7142 164.566 88.1821 163.936 87.6453ZM238.365 53.1638C219.339 62.4197 193.207 74.7214 164.029 87.6044C164.659 88.141 165.287 88.6745 165.908 89.1944C169.381 87.7261 172.801 86.2435 176.16 84.753C200.85 73.7981 222.307 62.4212 238.365 53.1638ZM240.376 52.1839L240.293 52.2249C225.589 63.9035 205.333 77.4424 180.558 88.1801C177.101 89.6782 173.557 91.1217 169.927 92.4981C170.559 93.0076 171.185 93.5093 171.806 94.0014C175.618 92.6532 179.322 91.2018 182.914 89.6635C207.209 79.2618 226.483 64.9295 240.376 52.1839ZM240.811 51.9715L240.678 52.0364C226.76 64.8434 207.397 79.287 182.952 89.7529C179.376 91.284 175.69 92.7294 171.896 94.0729C172.523 94.5686 173.145 95.0587 173.761 95.5366C203.469 85.8391 225.67 67.9971 240.811 51.9715ZM241.239 51.7623L241.061 51.8494C225.919 67.9223 203.667 85.8638 173.855 95.6089C174.485 96.0968 175.111 96.5808 175.73 97.0496C205.587 88.191 226.918 69.1998 241.239 51.7623ZM241.656 51.5588L241.453 51.6581C227.134 69.1431 205.768 88.2225 175.829 97.1238C176.458 97.6 177.08 98.0642 177.698 98.522C207.723 90.5655 228.169 70.4287 241.656 51.5588ZM242.062 51.3605L241.839 51.4694C228.358 70.3851 207.89 90.6044 177.803 98.6C178.432 99.0647 179.053 99.516 179.671 99.9616C209.885 92.9737 229.426 71.685 242.062 51.3605ZM242.471 51.1609L242.226 51.2802C229.593 71.6452 210.039 93.0115 179.78 100.041C180.407 100.492 181.026 100.931 181.642 101.363C209.793 95.864 227.837 76.2362 239.703 56.0713C240.665 54.4354 241.587 52.7963 242.471 51.1609ZM242.87 50.9645L242.62 51.0875C241.716 52.7635 240.773 54.4437 239.786 56.1204C227.92 76.2852 209.884 95.9146 181.757 101.444C182.38 101.88 182.997 102.305 183.608 102.721C206.733 99.0869 222.47 84.7661 233.484 67.9609C237.086 62.4651 240.184 56.704 242.87 50.9645ZM243.267 50.7701L243.009 50.8966C240.309 56.6756 237.193 62.479 233.565 68.0139C222.552 84.8159 206.826 99.1386 183.73 102.804C184.35 103.225 184.964 103.636 185.573 104.037C205.366 101.716 219.338 90.7337 229.457 76.6319C235.168 68.6718 239.653 59.7187 243.267 50.7701ZM243.662 50.5758L243.397 50.706C239.774 59.6942 235.274 68.6915 229.536 76.6886C219.421 90.7845 205.464 101.771 185.706 104.124C186.319 104.527 186.926 104.92 187.528 105.303C205.013 103.985 217.646 95.2719 226.975 83.239C234.335 73.746 239.643 62.1898 243.662 50.5758ZM244.056 50.3823L243.786 50.515C239.76 62.1681 234.439 73.77 227.051 83.2981C217.729 95.3227 205.115 104.04 187.669 105.392C188.281 105.781 188.887 106.159 189.486 106.525C205.327 106.023 216.932 98.935 225.601 88.4807C234.238 78.0628 239.963 64.3022 244.056 50.3823ZM244.448 50.19L244.174 50.3244C240.076 64.2835 234.341 78.0911 225.675 88.5425C217.016 98.9857 205.433 106.076 189.638 106.617C190.24 106.985 190.837 107.342 191.427 107.689C206.083 107.89 216.909 102.032 225.036 92.7915C234.66 81.8486 240.503 66.1649 244.448 50.19ZM244.84 49.9975L244.562 50.1343C240.614 66.1486 234.761 81.8805 225.109 92.8558C216.995 102.082 206.197 107.943 191.596 107.787C192.194 108.136 192.786 108.476 193.371 108.803C207.165 109.638 217.391 104.742 225.074 96.4504C235.454 85.2477 241.199 67.8459 244.84 49.9975ZM245.232 49.8051L244.95 49.9435C241.307 67.8315 235.555 85.2822 225.146 96.5163C217.479 104.79 207.288 109.688 193.561 108.909C194.143 109.233 194.719 109.548 195.289 109.851C208.472 111.29 218.247 107.184 225.57 99.6404C236.524 88.3572 242.007 69.391 245.232 49.8051ZM245.622 49.6132L245.338 49.7528C242.112 69.3783 236.623 88.394 225.64 99.7077C218.34 107.226 208.616 111.341 195.52 109.973C196.091 110.275 196.657 110.567 197.216 110.848C209.964 112.868 219.392 109.427 226.418 102.486C237.8 91.2446 242.893 70.8316 245.622 49.6132ZM246.013 49.4203L245.726 49.5616C242.997 70.8199 237.898 91.2832 226.486 102.555C219.491 109.464 210.124 112.914 197.485 110.983C198.034 111.256 198.576 111.519 199.112 111.772C211.582 114.385 220.757 111.526 227.542 105.074C239.232 93.9579 243.842 72.1898 246.013 49.4203ZM246.402 49.2278L246.115 49.3698C243.945 72.1794 239.331 93.9979 227.609 105.144C220.871 111.551 211.785 114.427 199.471 111.94C199.989 112.181 200.501 112.412 201.008 112.635C213.311 115.848 222.301 113.513 228.884 107.466C240.785 96.5329 244.835 73.4827 246.402 49.2278ZM246.791 49.0358L246.502 49.1785C244.936 73.4736 240.884 96.5741 228.949 107.537C222.445 113.513 213.601 115.882 201.546 112.871C202.001 113.066 202.45 113.251 202.896 113.431C215.125 117.264 223.988 115.414 230.4 109.706C242.434 98.9962 245.864 74.7227 246.791 49.0358ZM247.18 48.844L246.89 48.9873C245.963 74.7143 242.531 99.0385 230.465 109.779C224.209 115.346 215.633 117.256 203.89 113.825C216.59 118.706 225.64 117.377 232.058 111.828C244.156 101.368 246.919 75.9187 247.18 48.844ZM246.893 48.8911L247.181 48.749C247.183 48.5261 247.185 48.3032 247.187 48.0801L246.916 48.2435C246.909 48.4594 246.901 48.6753 246.893 48.8911ZM246.509 49.081L246.795 48.9398L246.817 48.3031L246.547 48.4645C246.535 48.6701 246.522 48.8757 246.509 49.081ZM246.125 49.2704L246.409 49.1305C246.421 48.9287 246.434 48.7269 246.446 48.5249L246.179 48.6849C246.161 48.8801 246.143 49.0754 246.125 49.2704ZM245.739 49.4606L246.022 49.3208C246.041 49.1296 246.058 48.9381 246.076 48.7464L245.81 48.905C245.787 49.0904 245.763 49.2754 245.739 49.4606ZM245.355 49.6501L245.635 49.5122C245.658 49.3307 245.682 49.1494 245.705 48.9679L245.44 49.1262C245.412 49.3008 245.384 49.4754 245.355 49.6501ZM244.971 49.8388L245.249 49.7025C245.277 49.5321 245.304 49.3615 245.331 49.1911L245.071 49.3456C245.038 49.5099 245.005 49.6742 244.971 49.8388ZM244.588 50.0267L244.861 49.8926L244.959 49.4123L244.702 49.5647L244.588 50.0267ZM244.206 50.2142L244.474 50.0824L244.585 49.6342L244.331 49.7846C244.29 49.9279 244.248 50.0709 244.206 50.2142ZM243.825 50.4011L244.088 50.2718C244.129 50.1337 244.169 49.9954 244.209 49.857L243.961 50.0042C243.916 50.1367 243.871 50.2689 243.825 50.4011ZM243.445 50.5879L243.702 50.4616C243.746 50.3347 243.789 50.2076 243.832 50.0806L243.591 50.2228C243.543 50.3445 243.494 50.4661 243.445 50.5879ZM243.066 50.7738L243.314 50.6519C243.361 50.5355 243.408 50.4194 243.455 50.3031L243.22 50.4409C243.169 50.5521 243.118 50.663 243.066 50.7738ZM242.69 50.9586L242.928 50.8418C242.977 50.737 243.025 50.6323 243.074 50.5276L242.851 50.6589C242.797 50.7588 242.743 50.8586 242.69 50.9586ZM242.31 51.1445L242.54 51.0321L242.69 50.7536L242.474 50.8809L242.31 51.1445ZM241.941 51.325L242.146 51.2247L242.294 50.9871L242.099 51.1007C242.047 51.1754 241.994 51.25 241.941 51.325ZM241.585 51.499L241.758 51.4144C241.804 51.3496 241.849 51.2848 241.895 51.2201L241.739 51.3115C241.688 51.3737 241.636 51.4365 241.585 51.499ZM241.229 51.6727L241.371 51.6031C241.412 51.5538 241.454 51.5037 241.495 51.4542L241.364 51.5308C241.319 51.5781 241.273 51.6257 241.229 51.6727ZM240.897 51.8349L240.979 51.7948L241.063 51.7069L240.989 51.75L240.897 51.8349ZM146.277 95.2468C146.979 94.9447 147.677 94.6427 148.376 94.3407C131.559 85.2788 111.854 71.2132 88.7089 50.8445C34.2938 2.95784 9.16086 0.609899 -3.91194 15.4743C-4.24216 15.8499 -4.56404 16.2378 -4.87925 16.635C-4.74011 19.6387 -4.62385 22.6297 -4.54382 25.5874C9.27679 10.6692 34.6856 11.5637 88.1093 55.8887C110.534 74.4942 129.757 87.2053 146.277 95.2468ZM144.061 96.1984C144.762 95.8978 145.463 95.5976 146.161 95.2972C129.649 87.2495 110.443 74.5447 88.0477 55.9635C34.5928 11.6127 9.23098 10.7721 -4.5398 25.7276C-4.45607 28.8668 -4.41405 31.9675 -4.43019 35.0048C10.2785 20.8913 35.983 21.08 87.4456 61.0058C109.119 77.8207 127.845 89.1716 144.061 96.1984ZM141.85 97.1462C142.548 96.8475 143.244 96.5491 143.94 96.2506C127.734 89.2169 109.028 77.8727 87.3862 61.0823C35.9001 21.1379 10.2351 20.995 -4.43076 35.1396C-4.45017 38.4448 -4.54023 41.6732 -4.72035 44.794C10.8168 31.1137 36.8249 30.2513 86.7816 66.1225C107.707 81.1479 125.936 91.1343 141.85 97.1462ZM139.64 98.0897C140.335 97.7937 141.028 97.4976 141.721 97.2014C125.82 91.1818 107.615 81.2017 86.725 66.2014C36.7457 30.3139 10.7717 31.2205 -4.72821 44.9306C-4.93759 48.4959 -5.26688 51.9182 -5.74814 55.1492C10.588 41.4233 36.9813 39.0103 86.1174 71.2393C106.295 84.4748 124.027 93.0937 139.64 98.0897ZM137.415 99.0359C138.111 98.7402 138.807 98.4445 139.502 98.1487C123.907 93.1436 106.203 84.5296 86.0644 71.3204C36.8975 39.0712 10.5332 41.5356 -5.77065 55.2974C-6.40265 59.4916 -7.29421 63.3592 -8.51469 66.7951C8.61925 52.1048 35.6403 47.0208 85.453 76.356C104.874 87.7935 122.108 95.0547 137.415 99.0359ZM-25.0181 79.6233C-24.6339 78.3631 -24.2494 77.0872 -23.8619 75.8006C-23.1328 73.3807 -22.3927 70.9232 -21.6207 68.4628L-21.596 68.3593C-20.5873 64.1311 -19.5589 59.8196 -18.4173 55.5813C-17.6129 51.3149 -16.7653 47.0452 -15.7923 42.9071C-15.1516 38.6327 -14.4485 34.4157 -13.6084 30.3764C-13.1012 26.0958 -12.5147 21.9219 -11.7787 17.9664C-11.4808 14.7315 -11.1288 11.5823 -10.6932 8.56454L-10.5921 8.53745C-10.984 11.2477 -11.3083 14.0649 -11.5862 16.9551C-11.2907 15.4352 -10.9719 13.9492 -10.6251 12.505C-10.5643 11.1537 -10.4968 9.81482 -10.4203 8.49144L-10.322 8.46508C-10.3898 9.63813 -10.4506 10.8234 -10.506 12.0186C-10.187 10.7233 -9.84551 9.46164 -9.478 8.23894L-9.36882 8.20968C-9.78753 9.59765 -10.1727 11.036 -10.5288 12.5179C-10.6312 14.805 -10.7139 17.1281 -10.7857 19.4723C-10.316 18.0266 -9.81264 16.6276 -9.27057 15.2843C-9.28108 12.8978 -9.28678 10.5271 -9.27899 8.18562L-9.18208 8.15965C-9.1897 10.4325 -9.18458 12.7332 -9.17478 15.0492C-8.63966 13.7405 -8.06749 12.4851 -7.4536 11.2905L-7.48431 10.3579C-7.51342 9.47946 -7.54254 8.60256 -7.57116 7.728L-7.47493 7.70222C-7.44613 8.58425 -7.41677 9.46861 -7.38733 10.3548L-7.36216 11.1144C-6.76073 9.95828 -6.1201 8.85945 -5.43506 7.82583L-5.47242 7.16565L-5.37687 7.14005L-5.34544 7.69298C-5.18943 7.46013 -5.03126 7.23059 -4.8705 7.00437L-4.7243 6.96519C-4.93213 7.25548 -5.13623 7.55138 -5.33644 7.85291C-5.17405 10.7297 -5.01974 13.6138 -4.88599 16.4871C-4.59173 16.1189 -4.29173 15.7593 -3.98442 15.4099C9.12476 0.504124 34.3011 2.83503 88.7731 50.7719C111.946 71.1645 131.666 85.2361 148.489 94.2919C149.188 93.99 149.891 93.6876 150.588 93.3859C133.468 83.3103 113.261 67.8768 89.3706 45.7257C59.32 17.8639 38.2316 3.98893 23.2398 -0.527763L23.4107 -0.573567C38.4153 3.99668 59.4806 17.8807 89.4362 45.6547C113.353 67.8293 133.572 83.2686 150.696 93.339C151.403 93.0327 152.103 92.7272 152.806 92.4214C135.379 81.3325 114.677 64.547 90.0322 40.6072C66.9855 18.2191 49.2142 4.09042 35.4486 -3.7991L35.5754 -3.83309C49.3434 4.07133 67.0992 18.1947 90.0999 40.5375C114.768 64.5003 135.481 81.2919 152.911 92.376C153.613 92.0709 154.317 91.7653 155.016 91.4606C137.285 79.3584 116.082 61.2075 90.6939 35.4885C71.9256 16.4759 56.6522 2.94979 44.2017 -6.14442L44.3153 -6.17488C56.7648 2.92304 72.0244 16.438 90.7629 35.4205C116.173 61.1613 137.386 79.3192 155.117 91.4168C155.824 91.1082 156.527 90.8005 157.231 90.4925C139.194 77.3774 117.495 57.8739 91.356 30.37C75.7621 13.9618 62.5748 1.3413 51.4165 -8.07764L51.5265 -8.10711C62.6809 1.31009 75.8561 13.9202 91.4262 30.3031C117.586 57.829 139.294 77.3382 157.33 90.4492C158.035 90.1406 158.74 89.832 159.442 89.5242C141.101 75.3962 118.904 54.5358 92.0181 25.2514C78.9752 11.045 67.6099 -0.515211 57.7054 -9.76279L57.8118 -9.79132C67.7113 -0.548389 79.065 10.9997 92.0892 25.1859C118.995 54.4914 141.199 75.3578 159.539 89.4818C160.244 89.1723 160.947 88.8632 161.65 88.5543C143.004 73.414 120.309 51.1922 92.6799 20.1327C81.7818 7.88135 72.0527 -2.52248 63.3618 -11.2785L63.467 -11.3067C72.1517 -2.55732 81.8703 7.83533 92.7525 20.0685C120.399 51.148 143.101 73.3763 161.743 88.5129C162.451 88.2015 163.155 87.8906 163.859 87.58C144.909 71.4273 121.717 47.8517 93.342 15.0142C84.3081 4.55977 76.071 -4.63342 68.5604 -12.6714L68.6649 -12.6994C76.1685 -4.66949 84.3957 4.51277 93.4153 14.951C121.808 47.809 145.005 71.3901 163.952 87.5391C193.698 74.4085 220.292 61.8761 239.403 52.5642C239.663 52.4137 239.92 52.2645 240.177 52.1149C240.413 51.9547 240.649 51.7941 240.881 51.6351C241.112 51.45 241.341 51.266 241.569 51.082C241.77 50.8951 241.966 50.7098 242.165 50.5237C242.374 50.298 242.582 50.0722 242.788 49.8474C242.965 49.6254 243.148 49.4018 243.323 49.1808C243.525 48.8874 243.723 48.595 243.921 48.3025C244.08 48.0357 244.232 47.7705 244.387 47.5043C244.529 47.2269 244.669 46.95 244.808 46.6732C244.943 46.363 245.077 46.053 245.21 45.7433C245.335 45.4037 245.46 45.0644 245.583 44.7256C245.692 44.3783 245.799 44.0312 245.905 43.6844C246.004 43.3041 246.102 42.9239 246.198 42.5438C246.281 42.1554 246.363 41.767 246.443 41.3791C246.515 40.9584 246.585 40.5379 246.655 40.1177C246.711 39.6849 246.767 39.2525 246.822 38.8202C246.866 38.3657 246.909 37.9116 246.951 37.4576C246.981 36.9816 247.011 36.5059 247.04 36.0306C247.057 35.5429 247.074 35.0552 247.09 34.5683C247.094 34.0503 247.097 33.533 247.1 33.016C247.017 27.9836 246.893 22.9838 246.772 18.102C246.261 -2.50825 245.802 -21.023 248.651 -31.0959L248.699 -30.9156C245.903 -20.8293 246.36 -2.40137 246.869 18.0994C246.955 21.5691 247.042 25.0985 247.116 28.6564C247.121 24.8411 247.106 21.0649 247.091 17.3694C247.016 -1.49258 246.95 -18.2692 249.581 -27.6226L249.63 -27.4404C247.047 -18.0765 247.113 -1.38498 247.188 17.369C247.205 21.6628 247.223 26.0648 247.209 30.5115C247.334 25.8376 247.418 21.2227 247.499 16.7472C247.81 -0.399769 248.085 -15.5104 250.511 -24.1528L250.56 -23.9694C248.179 -15.3196 247.905 -0.292035 247.596 16.7487C247.505 21.7976 247.41 27.0233 247.256 32.3119C247.556 26.8253 247.782 21.4206 247.998 16.236C248.644 0.76784 249.208 -12.7471 251.44 -20.6862L251.489 -20.5024C249.298 -12.5591 248.737 0.875783 248.095 16.2398C247.856 21.966 247.606 27.9599 247.256 34.0372C247.79 27.79 248.202 21.6506 248.591 15.8371C249.517 2.00903 250.32 -9.97995 252.368 -17.2233L252.417 -17.0405C250.405 -9.79599 249.607 2.1167 248.688 15.8434C248.27 22.0798 247.827 28.6905 247.234 35.4076L247.235 35.4702C248.053 28.5889 248.688 21.8453 249.28 15.5514C250.43 3.32078 251.42 -7.21168 253.294 -13.7662L253.343 -13.5846C251.501 -7.03245 250.517 3.42791 249.376 15.5606C248.763 22.0754 248.105 29.0722 247.244 36.2047L247.247 36.4155C248.378 29.0954 249.258 21.9481 250.067 15.3809C251.383 4.70151 252.51 -4.44469 254.218 -10.3169L254.266 -10.1371C252.586 -4.27089 251.468 4.8075 250.164 15.3928C249.334 22.1309 248.428 29.4797 247.254 36.9995L247.258 37.3115C248.751 29.5949 249.912 22.0941 250.959 15.327C252.379 6.14863 253.591 -1.68111 255.14 -6.87668L255.188 -6.69816C253.663 -1.51174 252.461 6.25307 251.055 15.3418C249.986 22.2463 248.8 29.9141 247.263 37.796L247.267 38.187C249.178 30.1049 250.655 22.2903 251.958 15.3914C253.419 7.65885 254.663 1.07608 256.059 -3.4485L256.106 -3.27218C254.731 1.23972 253.498 7.76155 252.053 15.4096C250.729 22.4171 249.226 30.3694 247.271 38.5876C247.272 38.7368 247.274 38.8861 247.276 39.0354C249.666 30.6185 251.497 22.5314 253.071 15.5761C254.507 9.22942 255.731 3.82442 256.974 -0.0338704L257.02 0.138717C255.795 3.98112 254.584 9.32972 253.166 15.5978C251.571 22.6425 249.715 30.8474 247.278 39.3815L247.282 39.8759C250.227 31.1436 252.452 22.8186 254.305 15.8834C255.649 10.8563 256.797 6.55892 257.884 3.36301L257.929 3.53145C256.857 6.70836 255.723 10.9535 254.399 15.9083C252.526 22.9156 250.274 31.3409 247.284 40.1723C247.286 40.3494 247.287 40.5268 247.288 40.7039C250.873 31.6715 253.536 23.1422 255.669 16.3144C256.849 12.534 257.867 9.27502 258.789 6.73927L258.832 6.90257C257.924 9.4162 256.921 12.6277 255.761 16.343C253.611 23.2287 250.92 31.8442 247.29 40.9619C247.291 41.1496 247.291 41.3374 247.292 41.5252C251.624 32.1947 254.777 23.4886 257.173 16.8699C258.12 14.2549 258.949 11.9654 259.687 10.0912L259.729 10.2486C259.004 12.0984 258.191 14.3445 257.264 16.9028C254.851 23.5679 251.671 32.3484 247.293 41.7527C247.294 41.9469 247.295 42.1411 247.296 42.3351C247.902 41.2149 248.49 40.1041 249.056 39.008C253.36 30.6665 256.517 23.1005 258.834 17.5487C259.478 16.0064 260.057 14.6196 260.577 13.4144L260.618 13.5652C260.11 14.7434 259.547 16.0915 258.924 17.5861C256.606 23.14 253.447 30.7092 249.142 39.0526C248.549 40.2007 247.934 41.3644 247.297 42.5386C247.297 42.7411 247.298 42.9437 247.298 43.1462C253.603 33.1296 257.915 24.1126 260.673 18.3448C260.95 17.7646 261.212 17.217 261.459 16.7048L261.497 16.8484C261.265 17.3312 261.02 17.8444 260.76 18.3865C257.989 24.1818 253.65 33.2544 247.298 43.3272C247.298 43.5324 247.299 43.7378 247.299 43.943C254.655 33.8932 259.559 25.046 262.331 19.9583L262.367 20.0941C259.575 25.2161 254.658 34.0663 247.299 44.1076C247.299 44.3202 247.299 44.5325 247.299 44.745C255.059 35.6424 260.326 27.7393 263.191 23.1703L263.225 23.2981C260.339 27.8952 255.061 35.8007 247.299 44.8953C247.298 45.1114 247.298 45.3276 247.297 45.5436C255.446 37.3659 261.065 30.3826 264.04 26.3384L264.072 26.4581C261.074 30.5268 255.444 37.5118 247.297 45.6801C247.296 45.899 247.296 46.1179 247.295 46.3365C255.813 39.0628 261.777 32.975 264.876 29.4588L264.906 29.5698C261.782 33.1072 255.808 39.1966 247.294 46.4623C247.293 46.6839 247.292 46.9054 247.291 47.127C256.163 40.7333 262.461 35.5153 265.699 32.5292L265.726 32.6314C262.462 35.6359 256.156 40.8558 247.29 47.243C247.289 47.4666 247.288 47.6905 247.286 47.9139C256.497 42.3749 263.119 38.0017 266.508 35.547L266.533 35.6405C263.116 38.1119 256.487 42.4882 247.285 48.0217C247.283 48.2482 247.281 48.4745 247.279 48.701C256.812 43.992 263.75 40.436 267.302 38.5114L267.324 38.595C263.744 40.5335 256.8 44.0921 247.278 48.7959C247.019 75.9115 244.254 101.411 232.121 111.901C225.518 117.611 216.138 118.866 202.886 113.521C201.664 113.138 200.408 112.696 199.119 112.199C197.889 111.832 196.627 111.413 195.333 110.937C194.06 110.578 192.76 110.172 191.422 109.704C190.166 109.37 188.88 108.986 187.566 108.556C186.28 108.238 184.966 107.876 183.623 107.464C182.344 107.174 181.038 106.84 179.707 106.465C178.363 106.191 176.995 105.876 175.596 105.511C174.268 105.269 172.914 104.988 171.536 104.664C170.153 104.448 168.746 104.195 167.313 103.897C165.978 103.723 164.624 103.519 163.247 103.277C161.884 103.141 160.498 102.969 159.094 102.767C157.663 102.671 156.205 102.533 154.732 102.372C153.286 102.324 151.823 102.249 150.34 102.142C148.988 102.146 147.622 102.129 146.242 102.088C144.772 102.156 143.288 102.204 141.786 102.222C140.37 102.353 138.943 102.468 137.5 102.558C136.016 102.771 134.521 102.966 133.015 103.143C131.54 103.437 130.056 103.717 128.562 103.983C127.095 104.367 125.621 104.741 124.14 105.106C122.653 105.6 121.16 106.089 119.663 106.571C86.8422 120.11 52.8572 132.951 22.4701 142.207C12.4881 145.248 2.89452 147.901 -6.14266 150.066L-6.16778 149.973C2.86819 147.808 12.4608 145.155 22.442 142.115C52.4932 132.961 86.0616 120.302 118.543 106.93C106.005 110.937 93.1404 114.498 80.139 117.388C55.7903 122.801 33.0561 129.348 12.8464 135.169C5.36705 137.323 -1.76628 139.377 -8.50845 141.237L-8.53354 141.144C-1.79209 139.283 5.34061 137.229 12.8198 135.075C33.0312 129.255 55.7674 122.707 80.118 117.294C93.5171 114.315 106.771 110.625 119.671 106.467C120.22 106.24 120.768 106.013 121.317 105.786C108.295 108.854 94.7403 111.12 80.7949 112.272C44.3139 115.284 13.5727 124.675 -10.8191 132.615L-10.8443 132.521C13.5511 124.581 44.2968 115.189 80.7866 112.175C94.9355 111.006 108.682 108.69 121.878 105.553C122.492 105.299 123.106 105.045 123.719 104.79C110.334 106.866 96.2157 107.786 81.4512 107.154C41.6147 105.449 10.6204 114.989 -13.0588 124.256L-13.0841 124.162C10.6023 114.893 41.6053 105.351 81.4551 107.057C96.36 107.695 110.606 106.75 124.103 104.631C124.747 104.363 125.391 104.095 126.034 103.827C112.315 104.899 97.6625 104.462 82.1084 102.035C38.6472 95.2556 7.60111 105.329 -15.2086 116.233L-15.2341 116.138C7.58593 105.231 38.6449 95.157 82.1231 101.939C97.782 104.382 112.526 104.807 126.324 103.706C126.99 103.428 127.655 103.149 128.321 102.871C114.275 102.935 99.1016 101.142 82.766 96.9163C35.3737 84.6576 4.52513 95.7457 -17.2456 108.631L-17.2718 108.533C4.51228 95.6443 35.3775 84.5584 82.7903 96.8227C99.2055 101.069 114.448 102.86 128.549 102.775C129.23 102.49 129.913 102.206 130.592 101.92C116.225 100.974 100.537 97.8247 83.4247 91.7975C31.7359 73.5914 1.41456 86.3146 -19.1392 101.564L-19.1663 101.463C1.40406 86.2088 31.7468 73.4923 83.4568 91.7058C100.639 97.7577 116.383 100.905 130.796 101.834C131.476 101.548 132.152 101.262 132.83 100.976C118.153 99.0156 101.959 94.5043 84.0839 86.678C27.6755 61.9809 -1.69906 77.1335 -20.8545 95.1622L-20.8832 95.0552C-1.70814 77.0215 27.693 61.8832 84.1227 86.5894C102.055 94.4409 118.296 98.9548 133.008 100.901C133.685 100.616 134.364 100.33 135.039 100.044C120.062 97.0675 103.364 91.1754 84.7436 81.559C23.1077 49.7271 -4.75913 68.3513 -22.3453 89.5984L-22.3762 89.4831C-4.76794 68.2297 23.133 49.631 84.7882 81.4726C103.458 91.1146 120.194 97.0119 135.199 99.9772C135.891 99.6844 136.579 99.3911 137.268 99.0982C121.983 95.1071 104.782 87.8516 85.4038 76.4397C35.5265 47.0661 8.52492 52.2344 -8.5817 66.9859C-9.7965 70.3562 -11.3331 73.3044 -13.2607 75.726C-13.7695 76.3654 -14.3054 76.9688 -14.8704 77.5324C-15.2331 78.0606 -15.6096 78.5698 -16.0041 79.0537C-16.4398 79.5882 -16.8971 80.0931 -17.3735 80.5706C-17.805 81.208 -18.259 81.8129 -18.7368 82.3838C-19.1003 82.8181 -19.4788 83.2305 -19.8702 83.625C-20.3686 84.3679 -20.8967 85.0663 -21.457 85.7168C-21.7407 86.046 -22.0328 86.3622 -22.3333 86.666C-22.5209 86.9485 -22.7129 87.2244 -22.9092 87.4938L-22.9411 87.3746C-22.8537 87.2539 -22.7671 87.1316 -22.6814 87.0081C-22.7758 87.0991 -22.8711 87.1887 -22.9672 87.2773L-22.9949 87.1739C-22.7956 86.9889 -22.5999 86.7984 -22.4075 86.6033C-22.0766 86.1046 -21.7585 85.5859 -21.4528 85.0475C-21.8479 85.3622 -22.2559 85.6582 -22.6767 85.9356C-22.8133 86.2284 -22.9528 86.5165 -23.095 86.8002L-23.1329 86.6588C-23.0307 86.4534 -22.9301 86.2457 -22.8307 86.0354C-22.9635 86.1209 -23.0974 86.2046 -23.2327 86.2864L-23.2588 86.1888C-23.0878 86.085 -22.9188 85.9781 -22.7519 85.8684C-22.4558 85.2331 -22.1721 84.5776 -21.9009 83.9009C-22.3191 84.115 -22.7481 84.3141 -23.1892 84.4965C-23.245 84.5831 -23.3008 84.6696 -23.3562 84.7565C-23.4102 84.91 -23.4649 85.0628 -23.5199 85.2147L-23.5922 84.9446L-23.4422 84.7103C-23.4266 84.6659 -23.4107 84.6224 -23.3951 84.5777C-23.484 84.6131 -23.5729 84.648 -23.6625 84.6823L-23.6875 84.5891C-23.5757 84.5466 -23.4644 84.5029 -23.354 84.4583C-23.0988 83.7209 -22.8541 82.9642 -22.6189 82.19C-23.054 82.3226 -23.4974 82.4443 -23.9526 82.5497C-24.0009 82.7193 -24.0492 82.8883 -24.0981 83.0566L-24.1465 82.876C-24.1173 82.775 -24.0884 82.6737 -24.0596 82.5724L-24.2185 82.6074L-24.2432 82.5153C-24.172 82.4997 -24.1011 82.4838 -24.0303 82.4676C-23.7378 81.4354 -23.4566 80.3781 -23.1851 79.2988C-23.6084 80.1349 -24.024 80.9722 -24.4326 81.8084L-24.4708 81.6658C-24.0165 80.737 -23.5535 79.8069 -23.0804 78.8785C-22.4429 76.3078 -21.8574 73.6163 -21.298 70.847C-21.9906 72.5016 -22.6569 74.1646 -23.3045 75.8236C-23.7444 77.5833 -24.1909 79.3099 -24.6516 80.9911L-24.7013 80.8054C-24.3218 79.4154 -23.9519 77.9944 -23.5869 76.5498C-24.0367 77.7104 -24.4776 78.8681 -24.9122 80.0183L-24.9552 79.8579C-24.446 78.511 -23.9281 77.154 -23.3972 75.7943C-22.9112 73.8493 -22.433 71.8639 -21.953 69.8554C-22.5733 71.8587 -23.175 73.856 -23.7691 75.8283C-24.172 77.1659 -24.5714 78.4914 -24.9707 79.8L-25.0181 79.6233L-25.0181 79.6233Z" fill="url(#paint0_linear_3339_37425)"/>
<defs>
<linearGradient id="paint0_linear_3339_37425" x1="262.508" y1="20.6208" x2="-20.5081" y2="96.4548" gradientUnits="userSpaceOnUse">
<stop stop-color="white"/>
<stop offset="1" stop-color="white" stop-opacity="0"/>
</linearGradient>
</defs>
</svg>
