<svg width="244" height="121" viewBox="0 0 244 121" fill="none" xmlns="http://www.w3.org/2000/svg">
<path d="M12.2236 103.726C9.01981 103.726 6.40617 103.038 4.38271 101.661C2.38735 100.255 1.38967 98.2741 1.38967 95.7166C1.38967 95.4637 1.41777 95.0843 1.47398 94.5784H8.97766C8.89334 95.6464 9.14628 96.4895 9.73645 97.1078C10.3266 97.726 11.2259 98.0352 12.4344 98.0352C13.5304 98.0352 14.3876 97.7963 15.0059 97.3185C15.6523 96.8408 15.9755 96.1663 15.9755 95.2951C15.9755 94.3958 15.568 93.6651 14.753 93.103C13.9661 92.5409 12.7295 91.9086 11.0433 91.206C9.41326 90.5315 8.07834 89.8992 7.0385 89.309C6.02677 88.6907 5.14151 87.8617 4.38271 86.8218C3.62391 85.782 3.24451 84.4752 3.24451 82.9014C3.2164 80.9622 3.69417 79.276 4.6778 77.8427C5.66142 76.4094 7.02445 75.3134 8.76688 74.5546C10.5093 73.7958 12.5047 73.4164 14.753 73.4164C16.7764 73.4164 18.5751 73.7396 20.1489 74.386C21.7227 75.0042 22.9452 75.9176 23.8164 77.1261C24.6876 78.3064 25.1232 79.7116 25.1232 81.3416C25.1232 81.7632 25.1092 82.0723 25.0811 82.269H17.4088C17.4369 82.1566 17.4509 81.988 17.4509 81.7632C17.4509 80.9763 17.1699 80.3439 16.6078 79.8662C16.0738 79.3603 15.3291 79.1074 14.3736 79.1074C13.3618 79.1074 12.5328 79.3603 11.8864 79.8662C11.2681 80.3439 10.959 81.0044 10.959 81.8475C10.959 82.6906 11.3524 83.4072 12.1393 83.9974C12.9262 84.5595 14.1487 85.2199 15.8068 85.9787C17.465 86.7375 18.8139 87.4401 19.8538 88.0865C20.9217 88.7329 21.8351 89.6041 22.5939 90.7001C23.3527 91.7681 23.7321 93.0889 23.7321 94.6627C23.7321 96.4052 23.2684 97.9649 22.3409 99.342C21.4135 100.719 20.0786 101.801 18.3362 102.588C16.5937 103.347 14.5562 103.726 12.2236 103.726ZM38.1101 79.5289L37.0562 85.6836H46.7098L45.7402 91.1217H36.0866L34.9062 97.7401H45.8245L44.8128 103.431H26.6859L31.9132 73.8379H50.0401L49.0283 79.5289H38.1101ZM80.3505 73.8379L75.1232 103.431H67.9147L70.0646 91.1638H58.8512L56.7013 103.431H49.4927L54.72 73.8379H61.9286L59.863 85.4729H71.0763L73.1419 73.8379H80.3505ZM99.6765 98.2038H88.6318L85.9338 103.431H78.388L94.3228 73.8379H102.67L108.15 103.431H100.52L99.6765 98.2038ZM98.8334 92.7236L97.105 81.7632L91.4562 92.7236H98.8334Z" fill="#0BA5EC"/>
<path d="M166.196 97.9509H175.639L174.67 103.431H158.018L163.245 73.8379H170.454L166.196 97.9509ZM192.188 103.726C189.687 103.726 187.48 103.206 185.569 102.166C183.686 101.127 182.225 99.6652 181.185 97.7823C180.145 95.8993 179.625 93.7353 179.625 91.2903C179.625 87.8336 180.37 84.7562 181.86 82.0583C183.349 79.3322 185.415 77.2104 188.057 75.6928C190.726 74.1752 193.748 73.4164 197.12 73.4164C199.649 73.4164 201.87 73.9363 203.781 74.9761C205.692 75.9879 207.167 77.4352 208.207 79.3181C209.247 81.173 209.767 83.3089 209.767 85.7258C209.767 89.1825 209.022 92.288 207.532 95.0421C206.043 97.7682 203.963 99.9041 201.293 101.45C198.624 102.967 195.588 103.726 192.188 103.726ZM193.284 97.0656C195.139 97.0656 196.769 96.5878 198.174 95.6323C199.579 94.6768 200.661 93.3981 201.42 91.7962C202.207 90.1662 202.6 88.4097 202.6 86.5267C202.6 84.5033 202.038 82.9154 200.914 81.7632C199.79 80.6109 198.216 80.0348 196.193 80.0348C194.338 80.0348 192.694 80.5126 191.26 81.4681C189.855 82.4236 188.759 83.7023 187.972 85.3042C187.213 86.878 186.834 88.6205 186.834 90.5315C186.834 92.555 187.396 94.1569 188.52 95.3372C189.644 96.4895 191.232 97.0656 193.284 97.0656ZM212.681 88.5924C213.187 85.6696 214.269 83.07 215.927 80.7936C217.613 78.4891 219.707 76.7045 222.208 75.4398C224.709 74.1471 227.421 73.5007 230.344 73.5007C233.885 73.5007 236.724 74.3579 238.86 76.0722C241.024 77.7865 242.204 80.1613 242.401 83.1965H234.475C234.11 82.2128 233.464 81.4681 232.536 80.9622C231.637 80.4282 230.527 80.1613 229.206 80.1613C226.873 80.1613 224.864 80.9341 223.178 82.4798C221.52 83.9974 220.466 86.0349 220.016 88.5924C219.876 89.4355 219.805 90.1662 219.805 90.7844C219.805 92.8641 220.409 94.466 221.618 95.5902C222.826 96.7143 224.541 97.2764 226.761 97.2764C228.56 97.2764 230.147 96.8267 231.524 95.9274C232.902 95 234.012 93.6932 234.855 92.007H225.749L226.634 86.7375H242.316L241.136 93.4402C240.293 95.2389 239.084 96.911 237.511 98.4567C235.965 100.002 234.124 101.253 231.988 102.209C229.852 103.164 227.548 103.642 225.075 103.642C222.517 103.642 220.269 103.15 218.33 102.166C216.419 101.155 214.943 99.7495 213.903 97.9509C212.892 96.1522 212.386 94.0585 212.386 91.6697C212.386 90.8547 212.484 89.8289 212.681 88.5924Z" fill="#2F9A10"/>
<path d="M111.184 72.4526V104.596H154.656V72.4526H184.956V65.8658H79.5669V72.4526H111.184Z" fill="#0BA5EC"/>
<path d="M81.4155 69.0311H187.068C196.342 69.0311 223.954 71.6658 236.6 72.9832C221.003 68.5569 197.08 65.5182 187.068 64.5521C155.451 60.9689 103.459 63.4104 81.4155 65.079C55.4898 67.8191 37.767 71.4902 32.1462 72.9832C48.5869 70.2431 71.8427 69.2068 81.4155 69.0311Z" fill="#0BA5EC"/>
<path d="M109.866 7.37721V37.1495H81.4112C80.1465 37.9926 79.6547 39.2573 79.5669 39.7842V62.9698C117.718 57.4895 165.722 60.6863 184.956 62.9698V38.7304C184.534 37.0441 183.199 36.2713 182.584 36.0956H154.393V7.64068C154.182 6.58679 153.076 5.62073 152.549 5.26944H142.537V3.6886H136.213V0H128.309V3.42513H121.722V5.00596H111.71C110.024 5.84907 109.778 6.93809 109.866 7.37721Z" fill="#2F9A10"/>
<path d="M142.803 12.3799H121.725H121.461V10.7991H116.456C114.348 11.6422 113.821 12.9069 113.821 13.4338V55.3258C114.032 57.0121 115.489 57.6093 116.192 57.6971H148.599C150.075 57.2755 150.619 55.9406 150.707 55.3258V13.4338C150.496 12.1692 149.038 10.9748 148.336 10.5356H142.803V12.3799Z" fill="white"/>
<path d="M119.614 17.9095H145.171" stroke="#2F9A10" stroke-width="1.58083"/>
<path d="M119.614 22.652H145.171" stroke="#2F9A10" stroke-width="1.58083"/>
<path d="M119.614 27.3945H145.171" stroke="#2F9A10" stroke-width="1.58083"/>
<path d="M119.614 32.137H145.171" stroke="#2F9A10" stroke-width="1.58083"/>
<path d="M119.614 36.8795H145.171" stroke="#2F9A10" stroke-width="1.58083"/>
<path d="M119.614 41.622H145.171" stroke="#2F9A10" stroke-width="1.58083"/>
<path d="M119.614 46.3645H145.171" stroke="#2F9A10" stroke-width="1.58083"/>
<path d="M119.614 51.107H145.171" stroke="#2F9A10" stroke-width="1.58083"/>
</svg>
