<svg width="58" height="65" viewBox="0 0 58 65" fill="none" xmlns="http://www.w3.org/2000/svg">
<path d="M22.4246 37.9672V47.0857H34.7571V37.9672H43.3525V36.0986H13.4556V37.9672H22.4246Z" fill="#0BA5EC"/>
<path d="M13.9768 36.997H43.9485C46.5794 36.997 54.4124 37.7444 58 38.1181C53.5753 36.8625 46.7887 36.0004 43.9485 35.7264C34.9794 34.7099 20.2302 35.4025 13.9768 35.8759C6.62216 36.6532 1.5945 37.6946 0 38.1181C4.66392 37.3408 11.2612 37.0468 13.9768 36.997Z" fill="#0BA5EC"/>
<path d="M22.0509 19.5068V27.9527H13.9788C13.62 28.1919 13.4805 28.5507 13.4556 28.7001V35.2775C24.2782 33.7228 37.8963 34.6297 43.3525 35.2775V28.4012C43.2329 27.9228 42.8542 27.7036 42.6798 27.6538H34.6824V19.5816C34.6226 19.2826 34.3087 19.0086 34.1592 18.9089H31.319V18.4605H29.5252V17.4141H27.2829V18.3857H25.4143V18.8342H22.5741C22.0958 19.0733 22.026 19.3823 22.0509 19.5068Z" fill="#2F9A10"/>
<path d="M31.393 20.9265H25.4137H25.3389V20.4781H23.9188C23.3209 20.7172 23.1714 21.076 23.1714 21.2255V33.1095C23.2312 33.5879 23.6448 33.7573 23.8441 33.7822H33.0374C33.4559 33.6626 33.6104 33.2839 33.6353 33.1095V21.2255C33.5755 20.8667 33.1619 20.5279 32.9626 20.4033H31.393V20.9265Z" fill="white"/>
<path d="M24.8164 22.4971H32.0664" stroke="#2F9A10" stroke-width="0.448454"/>
<path d="M24.8164 23.8423H32.0664" stroke="#2F9A10" stroke-width="0.448454"/>
<path d="M24.8164 25.1875H32.0664" stroke="#2F9A10" stroke-width="0.448454"/>
<path d="M24.8164 26.5332H32.0664" stroke="#2F9A10" stroke-width="0.448454"/>
<path d="M24.8164 27.8784H32.0664" stroke="#2F9A10" stroke-width="0.448454"/>
<path d="M24.8164 29.2241H32.0664" stroke="#2F9A10" stroke-width="0.448454"/>
<path d="M24.8164 30.5693H32.0664" stroke="#2F9A10" stroke-width="0.448454"/>
<path d="M24.8164 31.9146H32.0664" stroke="#2F9A10" stroke-width="0.448454"/>
</svg>
